<svg xmlns="http://www.w3.org/2000/svg" xmlns:xlink="http://www.w3.org/1999/xlink" width="260" height="70" viewBox="0 0 260 70">
    <defs>
        <path id="a" d="M2.883.745c-.229.018-.459.026-.807.044L.672 2.536l1.616-.115A509 509 0 0 0 3.59.876V.672c-.247.026-.476.055-.707.073z"/>
        <path id="c" d="M.546.948h1V2.19h-1z"/>
        <path id="e" d="M.108.883h5.538V13H.108z"/>
        <path id="g" d="M.495.12h1V1h-1z"/>
    </defs>
    <g fill="none" fill-rule="evenodd">
        <path fill="#324285" d="M3.969 19.278l-1.036 2.02c.25 0 .412.001.573-.002 1.422-.032 2.843-.104 4.264-.087 1.41.017 2.82.107 4.229.198 1.228.08 2.452.207 3.678.31.09.006.224.007.27-.046.268-.31.516-.639.868-1.083-2.201-.302-4.277-.644-6.366-.857-2.112-.216-4.238-.302-6.48-.453M20.697 54.114c-.241-.149-.454-.345-.727-.557-.922 4.208-1.236 8.386-1.412 12.67l1.857.914c0-.423-.005-.732 0-1.042.048-2.536.07-5.074.158-7.61.042-1.217.189-2.43.33-3.642.035-.3.107-.54-.206-.733"/>
        <path fill="#4CAD4D" d="M55.69 10.917a169.973 169.973 0 0 1-1.008 3.7 47.634 47.634 0 0 1-.744 2.318c-.32.928-.668 1.848-.99 2.775-.114.33-.312.7-.247 1.005.066.313.406.568.671.905 1.867-3.76 3.251-7.632 4.483-11.637L56.247 8.61c-.204.85-.366 1.582-.557 2.306"/>
        <path fill="#F1B541" d="M24.19 56.254c-.031.138-.068.212-.062.282.17 1.99.273 3.99.539 5.969.274 2.054.7 4.088 1.08 6.127.033.175.186.414.334.463.52.17 1.063.267 1.693.416-1.144-4.156-2.122-8.316-2.474-12.673-.341-.181-.706-.372-1.11-.584"/>
        <path fill="#047FAD" d="M14.125 7.579l-1.397 1.1c3.826 1.919 7.46 3.972 10.85 6.376l1.087-.573c-3.289-2.618-6.754-4.842-10.347-6.933l-.193.03M13.805 45.83c-.11.116-.183.179-.24.254-.908 1.227-1.842 2.439-2.715 3.692-.82 1.175-1.583 2.389-2.352 3.597-.56.879-1.094 1.776-1.63 2.67-.045.076-.063.226-.02.287.338.454.694.896 1.069 1.373.074-.108.134-.18.175-.26.206-.406.39-.824.61-1.221.779-1.402 1.529-2.82 2.364-4.188 1.022-1.676 2.12-3.307 3.179-4.962.05-.078.09-.213.058-.287-.143-.31-.314-.61-.498-.955M61.744 14.14c-.088.106-.159.169-.2.248-.193.364-.365.741-.567 1.1-.9 1.6-1.775 3.216-2.723 4.789-.83 1.379-1.739 2.713-2.628 4.057-.269.406-.144 1.124.3 1.399.04-.034.093-.066.127-.111.665-.871 1.35-1.73 1.986-2.621a110.188 110.188 0 0 0 2.37-3.462 83.021 83.021 0 0 0 2.037-3.273c.14-.236.501-.462.25-.824-.296-.424-.61-.836-.952-1.302M45.684 56.017l-.971.515c3.215 2.633 6.585 4.826 10.184 6.96.44-.329.95-.706 1.468-1.09-1.876-1.045-3.688-1.997-5.442-3.045-1.77-1.06-3.48-2.215-5.239-3.34"/>
        <path fill="#4CAD4D" d="M37.095 65.017c-1.167-1.93-2.232-3.922-3.337-5.89-.216-.383-.855-.593-1.298-.406 1.677 3.937 3.812 7.621 6.193 11.191l1.622-.21c-.202-.31-.387-.603-.583-.889-.87-1.263-1.806-2.485-2.597-3.796M7.228 14.26c4.213.905 8.237 2.033 12.183 3.609l.979-.77c-3.83-1.821-7.737-3.228-11.773-4.413L7.228 14.26"/>
        <path fill="#324285" d="M49.557 4.405c-.043-.02-.11.005-.145.008.035.73.11 1.437.096 2.142-.04 2.234-.086 4.468-.186 6.7-.048 1.068-.21 2.131-.344 3.194-.062.497.388 1.207.884 1.317.014-.019.038-.038.042-.06.207-1.155.44-2.307.612-3.467.144-.958.245-1.923.318-2.888.15-1.948.27-3.899.391-5.85.006-.095-.049-.243-.122-.284-.508-.284-1.027-.548-1.546-.812"/>
        <path fill="#4CAD4D" d="M16.414 50.092c-.074.114-.166.225-.222.352-.318.719-.631 1.442-.939 2.167-.417.977-.852 1.949-1.233 2.94-.341.89-.622 1.803-.925 2.706-.294.876-.545 1.77-.887 2.626-.229.573-.302.99.345 1.335.35.186.624.514.977.816.111-.471.196-.854.291-1.234.327-1.305.636-2.615.993-3.912.298-1.078.634-2.147.988-3.208a59.604 59.604 0 0 1 1.131-3.132c.236-.597.106-1.105-.519-1.456"/>
        <path fill="#F1B541" d="M12.12 42.063c-.7.754-1.412 1.498-2.1 2.263-1.966 2.188-3.915 4.394-5.893 6.572-.347.381-.398.683-.094 1.092.185.252.311.548.49.87.11-.133.171-.202.227-.275.74-.968 1.458-1.954 2.222-2.903a91.073 91.073 0 0 1 2.697-3.218 72.6 72.6 0 0 1 2.644-2.82c.392-.397.403-1.102-.194-1.58M19.165 4.514l-1.43.757c.093.112.159.23.256.303.69.514 1.4 1.006 2.082 1.532 2.413 1.86 4.735 3.827 6.907 5.965.34.336 1.03.334 1.434-.028-2.817-3.141-5.988-5.896-9.25-8.528"/>
        <path fill="#4CAD4D" d="M29.325 1.327c.08.142.138.266.215.375.609.849 1.255 1.673 1.825 2.547a205.267 205.267 0 0 1 3.154 5.01c.438.718.825 1.471 1.184 2.232.348.735.77 1.005 1.502.793-1.721-3.939-3.875-7.62-6.265-11.142l-1.615.185"/>
        <path fill="#324285" d="M57.804 32.782l.1 1.083c3.633-2.262 6.857-4.953 9.948-7.773l-.464-1.485c-3.036 3.01-6.158 5.8-9.584 8.175M59.155 50.185c-1.772-.082-3.537-.31-5.302-.49a1.184 1.184 0 0 0-1.263.82c.85.534 11.674 1.808 12.412 1.371.172-.31.335-.569.464-.845.117-.249.198-.513.316-.83-.261.022-.372.04-.484.04-2.048-.015-4.1.028-6.143-.066"/>
        <path fill="#F1B541" d="M5.67 25.876a48.507 48.507 0 0 0-3.158.598c-.728.161-1.693.057-1.689 1.238 0 .025-.02.048-.025.074l-.128.79c2.16-.528 4.218-1.096 6.304-1.523 2.104-.429 4.235-.72 6.425-1.083.121-.26.281-.61.47-1.015-1.366.12-2.627.206-3.88.348-1.444.163-2.884.353-4.319.573"/>
        <path fill="#4CAD4D" d="M55.849 55.432a71.734 71.734 0 0 1-3.095-1.018 38.775 38.775 0 0 1-2.418-.907c-.497-.209-1.162-.004-1.396.547 3.701 1.815 7.55 3.245 11.488 4.424l1.242-1.526c-.814-.199-1.519-.36-2.218-.543-1.204-.317-2.41-.625-3.603-.977"/>
        <path fill="#F1B541" d="M64.685 19.39c-.928 1.182-1.82 2.396-2.796 3.537a170.23 170.23 0 0 1-4.355 4.872c-.625.677-.741 1.005-.297 1.752 3.105-2.78 5.897-5.83 8.494-9.075l-.781-1.466c-.138.198-.196.293-.265.38M48.96 63.673a108.872 108.872 0 0 1-3.344-2.831c-1.057-.934-2.078-1.907-3.106-2.873-.41-.387-.918-.421-1.402-.058.137.67 7.948 8.008 9.06 8.508l1.247-.646c.01-.02.036-.08.075-.17-.079-.065-.138-.115-.199-.16-.778-.59-1.576-1.154-2.33-1.77"/>
        <path fill="#324285" d="M6.233 41.678c-1.647 1.327-3.207 2.76-4.784 4.129l.51 1.505c3.068-3.127 6.257-5.962 9.71-8.447-.09-.383-.164-.692-.253-1.079-1.809 1.352-3.54 2.57-5.183 3.892"/>
        <path fill="#F1B541" d="M44.964 7.909c-.125-1.12-.336-2.232-.53-3.344a32.402 32.402 0 0 0-.412-1.918c-.033-.14-.127-.34-.238-.375-.503-.163-1.023-.276-1.67-.442.11.381.195.649.263.922.25 1.001.507 2.001.733 3.008.345 1.529.705 3.056.985 4.597.217 1.186.363 2.39.451 3.593.032.442.23.576.561.696.164.058.318.144.554.253-.03-.252-.045-.362-.056-.472-.21-2.173-.399-4.348-.64-6.518"/>
        <path fill="#324285" d="M36.8 58.701c2.319 3.633 4.99 6.897 7.83 9.933.337-.099.553-.156.764-.228.205-.07.406-.157.65-.255-2.98-3.005-5.767-6.104-8.2-9.593l-1.043.143"/>
        <path fill="#F1B541" d="M64.099 44.077c-.833.187-1.661.393-2.496.56-.745.148-1.495.277-2.248.376-.994.13-1.994.217-2.99.333-.603.07-.901.388-.977 1.047.087.011.175.037.262.032.319-.019.638-.042.957-.075 2.356-.239 4.715-.452 7.064-.733 1.112-.133 2.206-.398 3.309-.603.48-.09 1.032-.09 1.03-.8 0-.024.026-.046.03-.072.085-.354.167-.709.263-1.116-.667.187-1.273.372-1.89.525-.767.189-1.543.351-2.314.526"/>
        <path fill="#047FAD" d="M35.947 1.074c1.91 3.881 3.57 7.838 4.731 11.942l1.072.268c-.948-4.265-2.39-8.263-4.072-12.21h-1.73zM68.908 37.062c-.26.126-.456.225-.656.317-.7.33-1.393.663-2.098.976-.594.264-1.2.501-1.802.746-.643.261-1.282.53-1.932.772-.693.255-1.393.492-2.095.722-.823.274-1.645.553-2.48.787-.603.17-.887.488-.903 1.19.096 0 .195.014.286-.004.195-.039.385-.098.578-.145.729-.178 1.464-.337 2.187-.538.87-.242 1.732-.514 2.594-.786a39.356 39.356 0 0 0 1.666-.568c.83-.304 1.656-.619 2.48-.939a79.922 79.922 0 0 0 2.045-.819c.1-.042.232-.16.237-.25.024-.455.01-.912.01-1.408l-.117-.053M11.853 29.034l-.129.026c-.308.06-11.46 3.861-11.599 3.934a.053.053 0 0 0-.02.044L.01 34.7c.29-.114 11.681-4.658 11.952-4.679l.09-.063a5.68 5.68 0 0 1 .197-.852c-.119-.134-.266-.057-.395-.072"/>
        <path fill="#4CAD4D" d="M4.703 36.953c-1.25.732-2.462 1.531-3.683 2.313-.275.174-.692.363-.742.607-.091.439.046.927.099 1.536 3.541-2.662 7.15-4.973 10.989-6.91l.116-1.07c-1.077.523-2.053.97-3.003 1.465-1.27.664-2.54 1.334-3.776 2.059"/>
        <path fill="#324285" d="M23.466 2.838c.604.636 1.144 1.184 1.66 1.751 1.33 1.462 2.676 2.91 3.965 4.407.817.95 1.537 1.983 2.313 2.967.13.165.312.353.499.39.238.046.504-.05.839-.095-2.323-3.567-5.031-6.783-7.925-9.904l-1.351.484"/>
        <path fill="#4CAD4D" d="M57.984 37.143l-.13 1.02c3.975-1.684 7.59-3.766 11.085-6.085l-.185-1.54c-3.475 2.54-6.997 4.8-10.77 6.605"/>
        <path fill="#F1B541" d="M6.707 52.209c-.359.588-.801 1.123-1.19 1.693-.078.116-.146.333-.09.426.266.442.575.855.92 1.35l.247-.383c.715-1.111 1.43-2.222 2.14-3.336.062-.097.082-.218.123-.33-.422.06-.744.115-1.067.15-.402.045-.81-.02-1.083.43"/>
        <path fill="#047FAD" d="M13.118 10.624c-.435-.243-.905-.423-1.36-.632-.267-.124-.502-.137-.711.123-.124.154-.291.272-.432.411-.235.231-.464.467-.727.734l3.703 1.434.166-.018c-.081-.54-.13-1.056-.25-1.555a.868.868 0 0 0-.39-.497M9.871 57.396c-.217.431-.419.87-.604 1.313-.055.13-.104.351-.037.428.397.462.828.894 1.3 1.39l1.414-3.685-1.821.255c-.045.052-.181.16-.252.3"/>
        <path fill="#4CAD4D" d="M23.357 63.08c-.44.397-.87.77-1.276 1.165-.09.088-.135.263-.134.397.005.458.027.917.064 1.374.04.487.105.974.163 1.497.088-.034.164-.04.206-.08.42-.411.84-.826 1.248-1.248a.396.396 0 0 0 .106-.278c-.088-.886-.19-1.77-.294-2.653-.008-.068-.06-.13-.083-.174"/>
        <path fill="#F1B541" d="M60.935 19.756c.593-.059 1.073-.086 1.546-.163.19-.029.42-.119.533-.26.414-.519.785-1.072 1.193-1.638l-.953-1.53-2.319 3.591M18.396 7.616c-.238-.206-.503-.378-.761-.561-.425-.3-.852-.596-1.29-.902l-1.435.923 4.019 2.57c-.095-.618-.155-1.12-.257-1.612-.032-.153-.153-.311-.276-.418M50.849 61.925c.068.433.138.865.213 1.297.025.142.017.343.107.413.555.434 1.133.839 1.71 1.258.414-.268.798-.5 1.162-.76.106-.073.158-.224.207-.297-1.167-.75-2.243-1.44-3.368-2.16-.02.15-.039.2-.031.249M63.336 41.416c-.11.036-.195.15-.287.226.524.265.954.494 1.394.7.143.068.33.146.466.108.914-.25 1.822-.527 2.728-.804.092-.028.166-.11.28-.19l-2.031-.84c-.897.28-1.726.533-2.55.8M41.153 3.919c-.11-.367-.234-.73-.38-1.183-.093.129-.142.177-.166.234-.209.493-.415.986-.618 1.482-.063.154-.19.34-.148.467.291.889.62 1.767.954 2.698.048-.038.15-.082.187-.157.153-.307.29-.624.426-.94.133-.307.372-.574.235-.966-.188-.536-.324-1.091-.49-1.635M29.43 64.828l-.372-1.108c-.075.052-.116.065-.128.09-.217.467-.434.936-.644 1.407-.06.138-.168.307-.134.427.275.961.58 1.913.897 2.94.084-.077.182-.13.222-.21.144-.294.302-.589.394-.9.118-.398.464-.739.255-1.225-.198-.459-.33-.944-.49-1.421"/>
        <path fill="#047FAD" d="M57.918 14.54c.51-.053.956-.092 1.399-.151.169-.022.419-.034.483-.14.294-.486.535-1.004.79-1.501l-1.406-1.493-1.266 3.286M5.627 34.847a85.534 85.534 0 0 0-1.737-.395.29.29 0 0 0-.173.036c-.731.374-1.461.747-2.187 1.129-.195.103-.372.237-.657.422.679.087 1.202.104 1.698.231.488.126.855-.031 1.255-.263.617-.36 1.26-.675 1.947-1.036-.04-.033-.084-.109-.146-.124"/>
        <path fill="#324285" d="M11.68 17.405c-.128-.507-.496-.635-.927-.713l-1.967-.357c.078.24.136.48.233.706.236.55.301 1.263 1.153 1.26a3.82 3.82 0 0 1 .593.053c.44.066.878.143 1.368.224-.02-.12-.019-.194-.046-.255-.136-.307-.326-.598-.407-.918M60.123 53.2c-.585-.162-1.203-.208-1.81-.29-.184-.024-.37-.022-.608-.034.17.39.38.72.456 1.079.114.525.483.661.913.755.177.037.36.048.538.081.46.089.92.183 1.492.298-.188-.488-.315-.885-.496-1.256-.118-.239-.278-.575-.485-.633M16.024 59.368c-.181.796-.33 1.6-.503 2.481.46-.176.86-.376 1.287-.482.576-.144.628-.576.689-1.035.069-.514.154-1.026.228-1.537.015-.102.01-.205.016-.307-.497.184-.958.337-1.401.529-.134.059-.285.214-.316.351"/>
        <path fill="#047FAD" d="M34.037 65.08c-.072.364-.118.735-.204 1.096-.088.368-.161.708.076 1.065.203.307.332.662.501.99.239.467.483.928.725 1.39.034-.001.068-.003.101-.006l.334-2.21-1.405-2.606c-.058.125-.111.199-.128.28M35.035 2.405l-.379-.729c-.055.136-.088.187-.095.241-.054.384-.102.77-.154 1.153-.08.604-.142 1.198.298 1.72.141.166.216.388.321.584l.721 1.346c.086-.424.187-.738.203-1.055.022-.46.317-.904.057-1.383-.337-.619-.65-1.25-.972-1.877"/>
        <path fill="#324285" d="M52.37 10.97c-.01.63-.169 1.258-.277 1.985.26-.107.454-.18.642-.266.533-.24 1.183-.303 1.224-1.137.032-.637.226-1.266.368-1.998-.4.16-.686.296-.986.39-.519.165-.959.329-.971 1.026"/>
        <path fill="#047FAD" d="M56.362 60.573l1.342.663 1.474-1.376-3.08-1.216.264 1.93"/>
        <path fill="#4CAD4D" d="M62.369 47.27c.083.107.125.176.178.23.318.32.628.645.962.946.112.1.287.195.429.19.805-.036 1.609-.099 2.413-.16.099-.007.195-.055.33-.095l-1.325-1.47-2.987.358"/>
        <path fill="#324285" d="M28.864 4.542c.04.29.085.61.238.846.342.526.751 1.008 1.136 1.507.097.127.203.25.36.442v-2.08c-.57-.768-1.182-1.588-1.792-2.407a7.245 7.245 0 0 0 .058 1.692"/>
        <path fill="#4CAD4D" d="M47.471 3.834l-1.339 1.508c.13.952.256 1.887.394 2.908L47.9 7l-.22-3.01-.208-.156M6.554 23.124c-.3-.387-.66-.42-1.08-.35-.093.016-.188.03-.283.039l-2.054.185c.046.085.067.164.117.214.258.263.543.5.78.779.29.336.597.545 1.07.446.43-.09.87-.14 1.308-.19.346-.038.695-.05 1.187-.085-.418-.408-.775-.69-1.045-1.038M60.686 47.477c-.074-.069-.225-.084-.339-.082-.709.012-1.418.032-2.126.057-.089.004-.176.047-.272.075.644.87 1.292 1.596 2.494 1.33.44-.097.907-.054 1.402-.076-.035-.099-.04-.175-.08-.217-.354-.367-.708-.736-1.079-1.087M23.081 58.678c-.462.434-.854.797-1.238 1.169-.05.046-.069.143-.07.216-.006.793-.01 1.586-.003 2.379 0 .058.07.116.197.31.349-.396.657-.715.925-1.062.148-.191.31-.425.326-.65.032-.442-.032-.891-.06-1.34-.018-.303-.045-.606-.077-1.022"/>
        <path fill="#324285" d="M7.345 16.648a1.05 1.05 0 0 0-1.33-.736L4.857 17.67l2.973.305c-.055-.178-.082-.286-.122-.39-.12-.312-.28-.614-.364-.936M67.277 29.556c-.916.111-1.886-.013-2.613.796-.331.368-.792.621-1.283.994.695 0 1.279.008 1.862-.007a.716.716 0 0 0 .38-.136c.698-.506 1.389-1.023 2.079-1.541.049-.036.076-.102.165-.227l-.338.067c-.084.018-.167.043-.252.054M1.935 41.928c.342-.046.538-.07.732-.098.792-.113 1.647.109 2.314-.602.399-.424.926-.728 1.468-1.14h-2.08c-.81.61-1.575 1.19-2.434 1.84"/>
        <path fill="#047FAD" d="M57.79 15.832c-.209.059-.477.179-.563.35-.31.602-.55 1.238-.85 1.932.578-.083 1.118-.157 1.655-.245.05-.008.09-.1.123-.16.349-.667.694-1.336 1.073-2.067-.159.006-.276.003-.394.019-.35.049-.707.076-1.045.17"/>
        <path fill="#324285" d="M39.306 64.151c0 .657-.02 1.185.01 1.71.013.217.097.457.22.637.345.506.727.986 1.095 1.476.133.178.272.353.467.607l-.127-2.274c-.5-.645-1.053-1.363-1.665-2.156"/>
        <path fill="#047FAD" d="M14.834 11.428L15.1 13.3c.698.314 1.427.64 2.236 1.005l-.299-1.736-2.202-1.142M11.642 53.77c-.252.497-.493 1-.739 1.5l-.248.51c.591-.085 1.088-.13 1.574-.237.155-.034.329-.194.404-.342.222-.435.396-.895.593-1.342.074-.17.16-.333.294-.608-.649.13-1.175.23-1.698.344-.071.016-.143.103-.18.174M54.305 57.862c-.474-.189-.935-.41-1.403-.61-.09-.039-.192-.048-.364-.087.1.597.177 1.096.272 1.593.013.07.102.142.173.18.537.277 1.077.546 1.618.814.127.062.264.104.414.163-.059-.45-.112-.834-.16-1.218-.049-.367-.163-.679-.55-.835"/>
        <path fill="#F1B541" d="M4.606 29.086c-.518.158-1.039.3-1.556.459-.309.096-.613.213-1.014.353.424.204.734.389 1.068.5.378.125.807.317 1.166.245.771-.155 1.511-.46 2.262-.71.064-.021.111-.098.192-.174-.415-.19-.806-.317-1.139-.532a1.086 1.086 0 0 0-.979-.141"/>
        <path fill="#047FAD" d="M66.41 35.214c-.497.254-.979.532-1.468.798-.273.149-.55.29-.934.494.381.076.647.155.917.18.486.045.966.317 1.463.069.756-.377 1.511-.758 2.261-1.146.063-.033.093-.127.15-.208-.685-.1-1.314-.2-1.948-.274a.81.81 0 0 0-.442.087"/>
        <path fill="#324285" d="M18.27 54.684c-.321.13-.647.255-.953.418-.14.074-.297.213-.34.354-.206.69-.377 1.39-.583 2.166.292-.092.553-.138.779-.256.307-.16.748-.315.847-.578.249-.66.337-1.38.496-2.108-.1 0-.181-.022-.245.004"/>
        <path fill="#F1B541" d="M27.991 59.787l-.08-.316-.914 1.587c.215.903.43 1.8.642 2.7h.104c.235-.476.49-.945.695-1.432.07-.168.064-.393.024-.578-.142-.656-.312-1.307-.47-1.961"/>
        <path fill="#4CAD4D" d="M63.575 24.85c-.39.308-.708.707-1.053 1.071-.166.174-.325.352-.437.472 1.775.4 2.661-.844 3.701-2.005-.517.068-.947.105-1.369.185-.29.056-.625.103-.842.276"/>
        <path fill="#F1B541" d="M42.222 7.656c-.113.104-.203.153-.239.227-.167.338-.33.678-.47 1.027-.083.206-.2.447-.163.645.114.61.292 1.206.453 1.805.043.163.111.318.197.558.198-.382.317-.689.502-.948.266-.37.356-.733.23-1.184-.19-.677-.33-1.369-.51-2.13"/>
        <path fill="#4CAD4D" d="M5.345 45.713c-.036.048-.085.085-.129.127l-1.11 1.063c.022.046.044.09.068.134.672-.115 1.445-.061 1.991-.387.654-.391 1.114-1.106 1.728-1.755-.452.062-.775.148-1.095.14-.609-.013-1.09.193-1.453.678"/>
        <path fill="#324285" d="M12.931 17.2c.22.492.424.857.542 1.248.12.387.421.464.725.53.578.125 1.164.211 1.801.323l-.664-1.497-2.404-.604"/>
        <path fill="#047FAD" d="M62.47 37.34c-.82.169-1.574.662-2.356 1.018l.063.105c.256.059.517.103.767.18.507.159.997.279 1.497-.05.211-.138.472-.198.71-.298.391-.168.782-.34 1.174-.51-.619-.235-1.283-.562-1.855-.445M32.028 63.2c.085.138.14.294.205.443l.686 1.562c.157-.73.29-1.348.43-2.006l-1.058-2.324c-.164.78-.765 1.496-.263 2.324M37.509 7.493l-.497-1.117a3.658 3.658 0 0 1-.107.005c-.124.578-.256 1.154-.365 1.734-.021.116.028.257.078.372.264.598.537 1.194.813 1.787.037.078.115.138.208.246.129-.484.27-.878.329-1.283a2.125 2.125 0 0 0-.074-.845c-.087-.311-.252-.601-.385-.899"/>
        <path fill="#F1B541" d="M21.556 9.854c-.527-.388-1.047-.785-1.642-1.23.067.693.12 1.24.178 1.858l1.895 1.351c.036-.037.071-.074.108-.11-.366-.575.134-1.374-.539-1.869M60.604 20.853c-.235.045-.507.167-.656.345-.36.427-.66.905-.98 1.367-.05.071-.072.163-.117.273a848.69 848.69 0 0 0 1.714-.192l1.413-1.82a4.316 4.316 0 0 0-1.374.027"/>
        <path fill="#324285" d="M15.164 64.22l1.74 1.124.275-2.602c-.532.209-.964.42-1.42.549-.496.14-.68.36-.595.93M8.03 37.68c-.583.19-1.084.638-1.613.983-.184.122-.347.275-.575.456.537 0 .975-.026 1.408.008.39.03.702-.072.985-.333.126-.114.284-.194.43-.29l1.06-.7a8.372 8.372 0 0 1-.01-.158c-.565 0-1.174-.13-1.685.035M36.973 60.795c-.064.61-.12 1.127-.176 1.667.675 1.254 1.31 2.13 1.515 2.128 0-.267-.026-.536.005-.8.072-.603.017-1.143-.42-1.636-.336-.38-.58-.844-.924-1.36"/>
        <path fill="#047FAD" d="M55.775 19.452c-.06.016-.104.113-.139.181-.21.412-.418.825-.623 1.24-.074.151-.136.308-.222.502.538-.095 1.005-.174 1.47-.264.048-.01.096-.075.125-.125.355-.608.707-1.217 1.06-1.826a6.548 6.548 0 0 0-.056-.122c-.539.136-1.079.268-1.615.414"/>
        <path fill="#324285" d="M31.64 6.706a6.626 6.626 0 0 0-.133.04c.178.73-.236 1.504.272 2.213.38.53.732 1.08 1.096 1.62l.125-.04c0-.561.161-1.188-.036-1.67-.317-.772-.87-1.446-1.325-2.163"/>
        <path fill="#4CAD4D" d="M7.993 22.644c.201.24.305.371.418.495.466.514.917 1.027 1.743.833.382-.09.79-.072 1.187-.104.113-.01.226-.023.444-.045l-1.032-1.179h-2.76z"/>
        <path fill="#047FAD" d="M13.444 50.45c-.356.614-.764 1.209-1.011 1.92.327-.079.549-.143.773-.185.176-.031.408.031.524-.063.247-.198.467-.448.637-.717.25-.393.447-.822.665-1.234-.213-.129-1.463.063-1.588.279M50.702 56.23c-.47-.159-.9-.435-1.38-.676.018.215-.007.402.055.553.163.401-.003.94.51 1.2.31.158.6.357.91.52.244.128.503.227.79.357-.055-.284-.105-.492-.135-.702-.072-.524-.107-1.036-.75-1.253M18.25 13.162c.106.553.15.968.276 1.357.067.207.267.376.427.543.072.076.194.104.294.154l1.31.648-.264-1.54-2.043-1.162"/>
        <path fill="#4CAD4D" d="M56.583 47.726c-.107-.098-.26-.197-.396-.204-.492-.025-.986-.01-1.542-.01-.065.102-.14.22-.222.352l.667.831 2.376.132c-.042-.123-.05-.25-.117-.326a11.202 11.202 0 0 0-.766-.775M7.11 44.062c.49-.037.946-.09 1.402-.102.522-.013.768-.427 1.102-.712.335-.288.652-.596.952-.872-1.655-.36-2.551.666-3.456 1.686M48.002 8.884c-.133.054-.206.063-.247.104-.254.253-.516.502-.746.778-.14.167-.313.377-.319.573-.02.664.025 1.33.05 1.995.003.096.02.192.048.425.24-.264.378-.48.571-.617.541-.383.742-.863.658-1.53-.069-.542-.015-1.1-.015-1.728"/>
        <path fill="#324285" d="M52.68 8.662c.267-.105.492-.199.72-.282.32-.117.66-.195.957-.353.173-.093.279-.311.453-.518-.675-.462-1.24-.847-1.892-1.29L52.68 8.66"/>
        <path fill="#4CAD4D" d="M3.63 48.103c-.54-.025-.884.213-1.182.592l.661 1.413c.68-.757 1.3-1.45 1.963-2.192-.159-.016-.262-.05-.354-.034-.365.072-.73.24-1.089.221M28.128 9.587c-.48-.564-.984-1.11-1.48-1.66-.041.569-.135 1.21.11 1.674.339.64.932 1.145 1.474 1.776 0-.524.009-.935-.004-1.346-.005-.15-.012-.34-.1-.444M59.55 28.789c-.063.065-.107.149-.174.245.357 0 .632-.002.908 0 .43.004.822-.05 1.149-.4.413-.442.88-.834 1.305-1.231-1.396-.277-2.322.49-3.188 1.386M22.331 55.408c-.131.223-.363.458-.408.726-.107.627-.126 1.269-.173 1.906-.005.071.042.146.079.262.125-.105.203-.184.294-.244.698-.463 1.086-1.05.96-1.946-.064-.458-.165-.665-.752-.704"/>
        <path fill="#F1B541" d="M22.912 10.89l.178 1.742 1.697 1.34-.071-1.565-1.804-1.516M46.309 58.405c-.226-.137-.408-.346-.623-.506-.206-.152-.426-.282-.596-.393-.3 1.552.768 2.186 1.847 2.933-.033-.316-.085-.543-.076-.766.02-.518-.057-.969-.552-1.268M61.124 42.145c-.458.125-.915.251-1.374.373-.27.071-.542.135-.951.235.426.213.722.38 1.035.511.25.106.528.25.78.228.46-.039.913-.185 1.366-.295.288-.069.57-.156.857-.236l.038-.137c-.56-.237-1.12-.473-1.68-.705-.017-.007-.047.02-.071.026M11.096 46.503c-.31.35-.599.72-.985 1.185.553-.041.976-.04 1.383-.117.205-.038.402-.195.564-.34.171-.155.298-.357.44-.541.206-.27.41-.541.643-.852-1.062-.067-1.535.088-2.045.665M58.076 23.841c.347-.019.578-.026.808-.044.23-.018.46-.047.706-.073v.204c-.457.543-.872 1.037-1.302 1.545l-1.616.115 1.404-1.747"/>
        <g transform="translate(56 23.052)">
            <mask id="b" fill="#fff">
                <use xlink:href="#a"/>
            </mask>
            <path fill="#F1B541" d="M-.858 4.066H5.12V-.858H-.858z" mask="url(#b)"/>
        </g>
        <g>
            <path fill="#4CAD4D" d="M47.578 13.503c-.568.42-.93.903-.851 1.688.039.391.21.581.493.682.135.048.362-.083.515-.183a.488.488 0 0 0 .19-.33c.048-.57.07-1.142.098-1.712.006-.14 0-.28 0-.515-.19.16-.312.272-.445.37"/>
            <path fill="#324285" d="M51.367 16.773l1.475-.677c.19-.77.364-1.484.571-2.328l-1.568.732-.478 2.273"/>
            <path fill="#F1B541" d="M9.354 27.93c-.526.017-1.05.186-1.57.305-.254.058-.502.145-.896.261.603.303 1.097.552 1.613.81.796-.212 1.586-.42 2.476-.655-.277-.158-.46-.283-.657-.37-.317-.139-.648-.363-.966-.351"/>
            <path fill="#324285" d="M55.966 52.601c-.618-.247-1.311-.307-2.067-.463l.603 1.401c.67.184 1.467.403 2.377.651-.12-.292-.176-.5-.282-.679-.19-.323-.343-.795-.631-.91"/>
            <path fill="#4CAD4D" d="M23.959 5.22c-.06-.058-.144-.09-.328-.204.12.713.075 1.396.36 1.888.346.6.968 1.043 1.476 1.548.024.023.092.002.086.002.362-1.524-.688-2.342-1.594-3.234M45.903 64.45c-.534-.512-1.08-1.011-1.665-1.552.036.434.076.813.093 1.193.017.356.099.66.388.915.39.341.739.73 1.106 1.097.099.099.205.192.386.361-.088-.66-.158-1.203-.234-1.746-.013-.093-.016-.213-.074-.268M14.66 22.75c-.752-.089-1.51-.13-2.303-.194.341.876 1.158 1.374 2.122 1.306l.397-.584c.192-.285.081-.494-.217-.529"/>
            <path fill="#F1B541" d="M49.703 61.27a1.222 1.222 0 0 0-.322-.56c-.243-.228-.539-.399-.815-.59-.219-.154-.442-.3-.715-.486l.248 1.711 1.778 1.35c0-.178.011-.266-.002-.352-.05-.359-.081-.724-.172-1.073M9.21 48.915c-.397.507-.794 1.013-1.187 1.52-.036.049-.045.117-.085.224.153-.013.253-.015.351-.03.367-.056.74-.093 1.1-.185.187-.047.376-.167.516-.303.158-.153.26-.361.385-.545l.635-.934c-.613.06-1.12.109-1.627.164-.033.004-.063.056-.089.089"/>
            <path fill="#4CAD4D" d="M41.658 60.139c-.447 1.553.686 2.302 1.483 3.224l.123-.03c-.064-.55.02-1.18-.227-1.63-.333-.604-.922-1.066-1.379-1.565"/>
            <path fill="#324285" d="M62.74 55.369c.305-.054 1.255-1.531 1.18-1.777l-1.905-.131.725 1.908M51.506 51.62c-.23.193-.436.414-.793.759.868.31 1.618.58 2.474.887-.249-.523-.433-.964-.665-1.378-.159-.283-.813-.438-1.016-.268M60.444 33.437c-.07.05-.123.128-.208.217 1.27.264 1.89.064 3.39-1.069.055-.042.083-.124.102-.154-1.364-.5-2.299.332-3.284 1.006"/>
            <path fill="#047FAD" d="M57.638 39.35v.996l2.551-.794c-.325-.506-1.649-.63-2.55-.203"/>
            <path fill="#4CAD4D" d="M57.456 30.67c.06.218.125.465.203.753.991-.194 1.483-.98 2.295-1.483-1.02-.22-1.825.03-2.498.73"/>
            <path fill="#047FAD" d="M30.872 58.468c-.1-.018-.197-.057-.34-.1-.05.13-.163.273-.134.372.224.75.479 1.492.724 2.236l.09-.008c.15-.5.341-.993.44-1.503.084-.445-.332-.918-.78-.997"/>
            <path fill="#324285" d="M34.83 59.147l1.153 2.085.219-1.64c-.136-.242-.255-.48-.398-.706-.211-.33-.919-.137-.974.261"/>
            <path fill="#F1B541" d="M.015 32.33c.766-.29 1.45-.547 2.242-.845l-2.024-.879a683.94 683.94 0 0 1-.218 1.723"/>
            <path fill="#324285" d="M.67 43.054l.397 1.38 1.78-1.49-.035-.09c-.701.065-1.401.132-2.141.2"/>
            <path fill="#4CAD4D" d="M9.992 41.44l.085.127c.646-.233 1.477.25 1.997-.578l-.28-1.012-1.802 1.462"/>
            <path fill="#324285" d="M17.393 53.924c1.155-.401 1.363-.551 1.644-1.165-.309-.278-.627-.568-.977-.884l-.667 2.049"/>
            <path fill="#4CAD4D" d="M64.748 23.57l2.119-.379-.543-1.409-1.576 1.788M47.13 65.641c.107.64.213 1.28.332 1.984l1.395-.543-1.64-1.505a3.355 3.355 0 0 1-.088.064M22.395 4.195c-.039-.346-.105-.767-.477-.745-.419.025-.826.285-1.315.47l2.041 1.857c-.02-.238-.022-.328-.038-.416-.07-.39-.167-.774-.21-1.166M29.168 12.065c.042.251.21.635.388.677.307.073.666-.074 1.087-.143l-1.492-1.866c0 .54-.048.945.017 1.332"/>
            <path fill="#F1B541" d="M26.307 57.194l.385 2.201c.042.004.085.01.127.013.193-.338.417-.664.57-1.02.091-.214.175-.626.085-.687-.327-.22-.729-.329-1.167-.507"/>
            <path fill="#324285" d="M11.43 36.665v-1.021L9.446 36.7c.604.349 1.713.294 1.984-.035M33.813 10.374c-.042.46-.117.923-.11 1.383.003.163.175.428.317.464.291.072.613.02 1.003.02l-1.09-1.921-.12.054"/>
            <path fill="#047FAD" d="M47.484 54.928c-.193.151-.414.269-.713.46.53.345 1.05.681 1.685 1.093l-.257-1.31c-.08-.413-.38-.508-.715-.242"/>
            <path fill="#324285" d="M16.784 18.39c.162.389.326.778.52 1.15.04.074.267.143.322.1.304-.23.582-.496.956-.828l-1.766-.61c-.008.04-.056.13-.032.189"/>
            <path fill="#4CAD4D" d="M40.064 58.358c-.117-.097-.369-.078-.543-.04-.08.017-.194.225-.17.314.058.23.154.461.291.653.277.39.59.756.89 1.131l.107-.058c0-.253-.034-.512.007-.757.095-.559-.207-.93-.582-1.243"/>
            <path fill="#F1B541" d="M39.188 3.111l.696-1.794-1.446-.144.75 1.938"/>
            <path fill="#324285" d="M58.006 35.04v.638c.92.115 1.468-.67 2.247-.889-.437-.474-1.797-.303-2.247.25"/>
            <path fill="#F1B541" d="M43.07 11.96l-.874 1.501 1.29.53-.305-1.996-.11-.035"/>
            <path fill="#324285" d="M50.97 18.223c-.109.473.347 1.15.808 1.32l.591-1.848-.088-.091c-.458.215-.916.433-1.312.62"/>
            <path fill="#047FAD" d="M54.417 23.166c.1.157.204.311.354.54l.919-1.482c-.614.131-1.17.028-1.604.42l.33.522"/>
            <path fill="#F1B541" d="M57.66 43.3c-.28-.08-.697-.208-.85-.076-.254.215-.34.622-.526 1.004.5-.058.858-.09 1.215-.143.351-.053.7-.128 1.123-.207-.14-.105-.218-.18-.309-.23-.213-.125-.42-.284-.653-.348"/>
            <path fill="#047FAD" d="M38.582 10.597c-.108.517-.227 1.032-.313 1.553-.017.098.072.287.155.317.312.113.642.178 1.084.292l-.754-2.159-.172-.003"/>
            <path fill="#F1B541" d="M11.197 27.617l1.308.751.448-1.189c-.636.107-1.135.186-1.63.282-.057.01-.096.116-.126.156M30.034 69.891l1.285.124-.624-1.709c-.244.584-.433 1.041-.661 1.585"/>
            <path fill="#047FAD" d="M9.724 31.985l1.736.534.38-1.333-2.093.702-.023.097"/>
            <path fill="#324285" d="M26.306 1.996l1.347 1.597.096-.043-.228-1.878-1.215.324M42.24 69.314c.36-.109.662-.2 1.023-.312l-1.195-1.35.173 1.662"/>
            <path fill="#047FAD" d="M14.142 49.228l1.553-.314-.761-.987-.792 1.301"/>
            <path fill="#324285" d="M66.88 28.524c.414 0 .726.02 1.033-.008.153-.014.421-.111.425-.18.013-.268-.06-.54-.109-.866l-1.349 1.054"/>
            <path fill="#F1B541" d="M43.099 57.225c.444.384.774.67 1.19 1.028l-.175-1.508-1.015.48M67.665 40.014c.372.146.724.288 1.125.448l.246-1.065-1.371.489v.127z"/>
            <path fill="#047FAD" d="M21.426 15.053l.22 1.175.88-.562-.838-.57a12.036 12.036 0 0 0-.262-.043"/>
            <path fill="#4CAD4D" d="M1.553 25.067l1.133-.275-.852-.81-.281 1.085"/>
            <path fill="#047FAD" d="M.178 37.137c-.054-.005-.166.076-.168.122-.016.282-.008.566-.008.956l1.428-.85c-.043-.048-.057-.081-.075-.083-.39-.053-.783-.108-1.177-.145"/>
            <path fill="#F1B541" d="M12.422 44.962l.077.113.904-.162-.276-.71-.705.759"/>
            <g transform="translate(32 .052)">
                <mask id="d" fill="#fff">
                    <use xlink:href="#c"/>
                </mask>
                <path fill="#047FAD" d="M1.29 2.19l.085-.059V.947l-.829.1.744 1.143" mask="url(#d)"/>
            </g>
            <path fill="#F1B541" d="M56.283 26.681l.273.678.8-.896c-.28.02-.448.013-.606.048-.16.037-.312.113-.467.17M25.638 13.291l.089.835.542-.315-.493-.563-.138.043"/>
            <path fill="#4CAD4D" d="M45.892 3.503c.158-.184.265-.306.426-.49-.244-.088-.42-.15-.713-.253l.287.743M23.562 68.387l.557.166-.071-.708-.486.542"/>
            <path fill="#047FAD" d="M68.39 34.043l.011.073h.77a50.527 50.527 0 0 0-.178-.398l-.604.325"/>
            <g transform="translate(28 57.052)">
                <mask id="f" fill="#fff">
                    <use xlink:href="#e"/>
                </mask>
                <path fill="#047FAD" d="M4.707 10.857c-.191-.407-.372-.82-.557-1.23-.175-.387-.36-.771-.521-1.164-.178-.432-.334-.873-.501-1.31-.264-.692-.538-1.383-.791-2.08-.184-.507-.348-1.022-.512-1.535-.195-.61-.408-1.215-.56-1.835C1.144 1.207.589.779.108.906c.913 4.12 2.3 8.086 3.942 11.96l1.596.135c-.069-.22-.104-.381-.171-.528-.25-.541-.515-1.075-.768-1.616" mask="url(#f)"/>
            </g>
            <path fill="#047FAD" d="M8.013 32.744c-.731.15-1.417.525-2.122.806l.01.174c.514.086 1.06.326 1.534.224.709-.153 1.367-.545 2.047-.836-.5-.207-1.02-.46-1.47-.368"/>
            <g transform="translate(36 69.052)">
                <mask id="h" fill="#fff">
                    <use xlink:href="#g"/>
                </mask>
                <path fill="#047FAD" d="M.495.863l.582.104L.57.12C.54.408.52.598.495.863" mask="url(#h)"/>
            </g>
        </g>
        <g fill="#334285">
            <path d="M86.26 18.692v3.636c0 .084-.036.132-.108.156l-.516.168-.588.204a4.991 4.991 0 0 1-1.764.276c-2.292 0-3.672-1.668-3.672-4.32s1.38-4.32 3.672-4.32c.672 0 1.128.084 1.764.288l.552.192c.084.036.12.096.084.168l-.336.9c-.036.084-.096.108-.168.084l-.528-.18a3.896 3.896 0 0 0-1.368-.216c-1.44 0-2.292 1.152-2.292 3.084 0 1.932.852 3.072 2.292 3.072.504 0 .9-.048 1.332-.192l.336-.108v-1.812H83.5c-.096 0-.144-.06-.12-.144l.264-.96c.024-.072.072-.108.156-.108h2.328c.084 0 .132.048.132.132zm2.916-4.164v7.068c0 .204.084.324.24.324h.084c.084-.012.132-.012.168.072l.36.852c.036.084.012.144-.06.18a1.459 1.459 0 0 1-.552.108c-.984 0-1.572-.564-1.572-1.536v-7.068c0-.084.048-.132.132-.132h1.068c.084 0 .132.048.132.132zm4.38 2.532c1.704 0 2.76 1.176 2.76 3.024 0 1.872-1.056 3.048-2.76 3.048-1.716 0-2.772-1.176-2.772-3.048 0-1.848 1.056-3.024 2.772-3.024zm0 1.2c-.912 0-1.452.684-1.452 1.824 0 1.152.54 1.836 1.452 1.836.888 0 1.44-.684 1.44-1.836 0-1.14-.552-1.824-1.44-1.824zm5.412-3.732v1.752c0 .576-.036.912-.192 1.344-.06.168.048.252.192.12.372-.432.888-.684 1.584-.684 1.572 0 2.52 1.164 2.52 3.024 0 1.884-1.044 3.048-2.772 3.048a3.722 3.722 0 0 1-1.5-.3l-1.056-.432c-.072-.036-.108-.084-.108-.156v-7.716c0-.084.048-.132.132-.132h1.068c.084 0 .132.048.132.132zm-.012 7.02l.36.168c.264.12.624.204.984.204.912 0 1.452-.684 1.452-1.836 0-1.14-.528-1.824-1.392-1.824-.96 0-1.404.768-1.404 1.788v1.5zm5.712-4.176l.456-.132c.408-.12.816-.18 1.308-.18 1.62 0 2.616.84 2.616 2.292v3.516c0 .084-.048.132-.132.132h-.6c-.084 0-.132-.036-.156-.108l-.096-.372c-.072-.168-.144-.168-.3-.024-.372.408-.912.636-1.644.636-1.332 0-2.076-.684-2.076-1.812 0-1.128.768-1.848 2.184-1.848h1.5V19.4c0-.732-.468-1.128-1.356-1.128-.348 0-.648.036-.936.12l-.432.132c-.084.024-.144-.012-.168-.096l-.264-.888c-.024-.084.012-.144.096-.168zm3.06 3.144h-1.5c-.588 0-.864.276-.864.684 0 .468.324.756.9.756.948 0 1.464-.468 1.464-1.356v-.084zm4.176-5.988v7.068c0 .204.084.324.24.324h.084c.084-.012.132-.012.168.072l.36.852c.036.084.012.144-.06.18a1.459 1.459 0 0 1-.552.108c-.984 0-1.572-.564-1.572-1.536v-7.068c0-.084.048-.132.132-.132h1.068c.084 0 .132.048.132.132zm4.836.084h3.06c1.824 0 2.892.996 2.892 2.664 0 1.776-1.212 2.772-3.432 2.772h-1.296v2.82c0 .084-.048.132-.132.132h-1.092c-.084 0-.132-.048-.132-.132v-8.124c0-.084.048-.132.132-.132zm1.224 1.212v3.024h1.296c1.344 0 2.052-.564 2.052-1.572 0-.912-.564-1.452-1.512-1.452h-1.836zm6.24 1.548l.456-.132c.408-.12.816-.18 1.308-.18 1.62 0 2.616.84 2.616 2.292v3.516c0 .084-.048.132-.132.132h-.6c-.084 0-.132-.036-.156-.108l-.096-.372c-.072-.168-.144-.168-.3-.024-.372.408-.912.636-1.644.636-1.332 0-2.076-.684-2.076-1.812 0-1.128.768-1.848 2.184-1.848h1.5V19.4c0-.732-.468-1.128-1.356-1.128-.348 0-.648.036-.936.12l-.432.132c-.084.024-.144-.012-.168-.096l-.264-.888c-.024-.084.012-.144.096-.168zm3.06 3.144h-1.5c-.588 0-.864.276-.864.684 0 .468.324.756.9.756.948 0 1.464-.468 1.464-1.356v-.084zm6.192-3.324v.936c0 .084-.048.132-.132.132-1.308.06-1.884.972-1.884 3.18v1.428c0 .084-.048.132-.132.132h-1.068c-.084 0-.132-.048-.132-.132v-5.556c0-.084.048-.132.132-.132h.6c.084 0 .132.036.156.108l.192.684c.072.132.132.156.24.036.48-.624 1.02-.924 1.896-.948.084 0 .132.048.132.132zm3.132-.012h1.344c.084 0 .132.048.132.132v.924c0 .084-.048.132-.132.132h-1.344v2.916c0 .408.18.636.468.636a.895.895 0 0 0 .312-.048c.084-.036.144-.024.18.06l.384.816c.036.072.012.132-.06.18-.216.12-.528.204-.816.204-1.14 0-1.8-.684-1.8-1.848v-2.916h-.588c-.084 0-.132-.048-.132-.132v-.924c0-.084.048-.132.132-.132h.588V15.8c0-.072.036-.12.108-.144l1.068-.36c.096-.024.156.012.156.108v1.776zm3.684.12l.108.48c.072.144.144.132.276.012a2.152 2.152 0 0 1 1.656-.732c1.368 0 2.196.852 2.196 2.268v3.54c0 .084-.048.132-.132.132h-1.068c-.084 0-.132-.048-.132-.132v-3.396c0-.756-.396-1.212-1.044-1.212-.888 0-1.404.648-1.404 1.812v2.796c0 .084-.048.132-.132.132h-1.068c-.084 0-.132-.048-.132-.132v-5.556c0-.084.048-.132.132-.132h.6c.084 0 .132.036.144.12zm10.104 5.532l-.552.144c-.432.108-.84.156-1.224.156-1.812 0-2.832-1.176-2.832-3.036 0-1.872 1.032-3.036 2.784-3.036 1.44 0 2.316.72 2.316 1.908 0 .924-.564 1.452-1.764 1.632l-1.884.288c.132.636.612 1.032 1.368 1.032.336 0 .696-.036.948-.12l.528-.132c.084-.024.144.012.168.096l.24.9c.024.084-.012.144-.096.168zm-3.276-2.976l1.8-.288c.42-.072.648-.264.648-.576 0-.48-.372-.732-1.02-.732-.792 0-1.332.492-1.428 1.596zm8.436-2.664v.936c0 .084-.048.132-.132.132-1.308.06-1.884.972-1.884 3.18v1.428c0 .084-.048.132-.132.132h-1.068c-.084 0-.132-.048-.132-.132v-5.556c0-.084.048-.132.132-.132h.6c.084 0 .132.036.156.108l.192.684c.072.132.132.156.24.036.48-.624 1.02-.924 1.896-.948.084 0 .132.048.132.132zm3.864 3.54l-1.212-.312c-.996-.252-1.464-.768-1.464-1.632 0-1.08.804-1.728 2.196-1.728.54 0 1.092.084 1.488.192l.528.132c.084.024.12.084.096.168l-.252.9c-.024.084-.084.12-.168.096l-.528-.144c-.324-.096-.804-.144-1.164-.144-.552 0-.876.204-.876.528 0 .276.168.444.54.552l1.2.312c1.044.264 1.512.804 1.512 1.668 0 1.128-.84 1.812-2.256 1.812a6.714 6.714 0 0 1-1.836-.252l-.468-.132c-.084-.024-.12-.084-.096-.168l.276-.9c.024-.072.084-.108.156-.084l.432.12a6.214 6.214 0 0 0 1.536.204c.588 0 .924-.228.924-.6 0-.288-.168-.468-.564-.588zm4.5-6.204v1.752c0 .576-.06.96-.192 1.368-.048.132.024.216.168.108.408-.444.924-.696 1.608-.696 1.368 0 2.196.852 2.196 2.268v3.54c0 .084-.048.132-.132.132h-1.068c-.084 0-.132-.048-.132-.132v-3.396c0-.768-.396-1.212-1.044-1.212-.972 0-1.392.768-1.404 1.812v2.796c0 .084-.048.132-.132.132H162.7c-.084 0-.132-.048-.132-.132v-8.34c0-.084.048-.132.132-.132h1.068c.084 0 .132.048.132.132zm6.228-.228c.504 0 .792.3.792.804 0 .516-.288.816-.792.816s-.804-.3-.804-.816c0-.504.3-.804.804-.804zm.804 3.012v5.556c0 .084-.048.132-.132.132h-1.068c-.084 0-.132-.048-.132-.132v-4.5h-.588c-.084 0-.132-.048-.132-.132v-.924c0-.084.048-.132.132-.132h1.788c.084 0 .132.048.132.132zm2.484-.024l.132.504c.048.132.144.12.228.012.468-.528 1.032-.744 1.68-.744 1.572 0 2.52 1.164 2.52 3.024 0 1.884-1.008 3.048-2.688 3.048-.432 0-.744-.072-1.092-.228l-.324-.144v2.688c0 .084-.048.132-.132.132h-1.068c-.084 0-.132-.048-.132-.132v-8.136c0-.084.048-.132.132-.132h.6c.084 0 .132.036.144.108zm.444 4.26l.36.168c.288.144.624.204.984.204.924 0 1.452-.684 1.452-1.836 0-1.14-.528-1.824-1.416-1.824-.9 0-1.38.744-1.38 1.788v1.5zm-93.564 7.704v-1.044c0-1.128.624-1.812 1.656-1.812.216 0 .408.036.636.132l.192.072c.06.024.084.072.06.132l-.18.48c-.024.06-.072.084-.132.06l-.156-.06a1.01 1.01 0 0 0-.42-.084c-.552 0-.876.408-.876 1.08v1.044h1.332c.072 0 .108.036.108.108v.492c0 .072-.036.108-.108.108h-1.332v4.932c0 .072-.036.108-.108.108h-.564c-.072 0-.108-.036-.108-.108V29.96h-.552c-.072 0-.108-.036-.108-.108v-.492c0-.072.036-.108.108-.108h.552zm5.772-.12c1.62 0 2.616 1.152 2.616 2.988 0 1.848-.996 3-2.616 3s-2.616-1.152-2.616-3c0-1.836.996-2.988 2.616-2.988zm0 .72c-1.152 0-1.836.852-1.836 2.268 0 1.428.684 2.28 1.836 2.28 1.152 0 1.848-.852 1.848-2.28 0-1.416-.696-2.268-1.848-2.268zm7.068-.612v.504c0 .072-.036.108-.108.108-1.284.06-2.016 1.14-2.016 3.168v1.872c0 .072-.036.108-.108.108h-.564c-.072 0-.108-.036-.108-.108V29.36c0-.072.036-.108.108-.108h.372c.072 0 .108.036.12.108l.084.9c.024.096.096.12.156.024.456-.72 1.044-1.116 1.956-1.152.072 0 .108.036.108.108zm7.536 2.244l-1.668-.624c-1.32-.492-1.788-1.14-1.788-2.148 0-1.32 1.02-2.1 2.604-2.1.624 0 1.2.108 1.812.3l.6.192c.072.024.096.072.072.144l-.168.492c-.024.06-.072.084-.132.06l-.576-.18a5.124 5.124 0 0 0-1.608-.252c-1.08 0-1.8.516-1.8 1.344 0 .552.252 1.068 1.296 1.452l1.656.624c1.128.42 1.812.984 1.812 2.076 0 1.428-1.212 2.256-2.892 2.256-.9 0-1.572-.156-2.256-.408l-.48-.18c-.06-.024-.084-.072-.06-.132l.18-.492c.024-.072.072-.096.132-.072l.48.18c.576.204 1.164.36 2.004.36 1.128 0 2.076-.54 2.076-1.512 0-.708-.612-1.116-1.296-1.38zm7.968 3.408l-.048-.732c-.036-.108-.108-.108-.18-.012-.456.648-1.092.972-1.92.972-1.32 0-2.124-.888-2.124-2.328V29.36c0-.072.036-.108.108-.108h.564c.072 0 .108.036.108.108v3.372c0 1.044.528 1.668 1.416 1.668 1.188 0 1.884-.888 1.884-2.412V29.36c0-.072.036-.108.108-.108h.564c.072 0 .108.036.108.108v5.532c0 .072-.036.108-.108.108h-.372c-.072 0-.108-.036-.108-.108zm4.98-2.316l-1.404-.396c-.888-.228-1.296-.696-1.296-1.488 0-.972.756-1.56 2.052-1.56.528 0 1.044.072 1.404.18l.468.144c.072.024.096.072.072.144l-.132.468c-.024.072-.072.096-.144.072l-.456-.132a4.546 4.546 0 0 0-1.2-.156c-.816 0-1.284.336-1.284.84 0 .42.228.684.768.84l1.392.396c.936.24 1.344.744 1.344 1.524 0 1.044-.804 1.668-2.184 1.668-.708 0-1.32-.096-1.812-.276l-.324-.108c-.072-.024-.096-.072-.072-.144l.168-.48c.024-.06.072-.084.132-.06l.312.108c.408.144.96.24 1.596.24.888 0 1.404-.36 1.404-.948 0-.444-.252-.708-.804-.876zm4.14-3.324h1.332c.072 0 .108.036.108.108v.492c0 .072-.036.108-.108.108h-1.332v3.636c0 .516.228.804.636.804.096 0 .204-.024.312-.06.06-.024.108 0 .144.06l.204.444c.024.06.012.12-.048.144a1.432 1.432 0 0 1-.612.132c-.888 0-1.416-.552-1.416-1.512V29.96h-.552c-.072 0-.108-.036-.108-.108v-.492c0-.072.036-.108.108-.108h.552v-1.44c0-.06.024-.108.084-.12l.576-.192c.072-.024.12.012.12.096v1.656zm2.988.192l.444-.132c.348-.108.78-.18 1.284-.18 1.464 0 2.376.876 2.376 2.328v3.432c0 .072-.036.108-.108.108h-.372c-.072 0-.108-.036-.12-.108l-.036-.54c-.036-.156-.12-.144-.24-.012-.408.516-1.02.78-1.908.78-1.212 0-1.92-.66-1.92-1.728 0-1.044.732-1.752 2.112-1.764h1.812v-.156c0-1.02-.576-1.608-1.608-1.608-.42 0-.792.048-1.092.144l-.42.12c-.072.024-.12 0-.144-.072l-.132-.468c-.024-.072 0-.12.072-.144zm3.324 2.856h-1.812c-.912 0-1.332.42-1.332 1.044 0 .672.432 1.068 1.2 1.068 1.236 0 1.944-.708 1.944-1.956V32.3zm3.072-5.844c.324 0 .516.192.516.528s-.192.528-.516.528-.528-.192-.528-.528.204-.528.528-.528zm.516 2.904v5.532c0 .072-.036.108-.108.108h-.564c-.072 0-.108-.036-.108-.108V29.96h-.552c-.072 0-.108-.036-.108-.108v-.492c0-.072.036-.108.108-.108h1.224c.072 0 .108.036.108.108zm2.46 0l.048.732c.036.108.108.108.18.012.456-.648 1.092-.972 1.92-.972 1.32 0 2.124.888 2.124 2.328v3.432c0 .072-.036.108-.108.108h-.564c-.072 0-.108-.036-.108-.108V31.52c0-1.044-.528-1.668-1.416-1.668-1.188 0-1.884.888-1.884 2.412v2.628c0 .072-.036.108-.108.108h-.564c-.072 0-.108-.036-.108-.108V29.36c0-.072.036-.108.108-.108h.372c.072 0 .108.036.108.108zm6.288.084l.444-.132c.348-.108.78-.18 1.284-.18 1.464 0 2.376.876 2.376 2.328v3.432c0 .072-.036.108-.108.108h-.372c-.072 0-.108-.036-.12-.108l-.036-.54c-.036-.156-.12-.144-.24-.012-.408.516-1.02.78-1.908.78-1.212 0-1.92-.66-1.92-1.728 0-1.044.732-1.752 2.112-1.764h1.812v-.156c0-1.02-.576-1.608-1.608-1.608-.42 0-.792.048-1.092.144l-.42.12c-.072.024-.12 0-.144-.072l-.132-.468c-.024-.072 0-.12.072-.144zm3.324 2.856h-1.812c-.912 0-1.332.42-1.332 1.044 0 .672.432 1.068 1.2 1.068 1.236 0 1.944-.708 1.944-1.956V32.3zm3.324-5.676v2.208c0 .492-.024.84-.096 1.212-.036.132.06.18.144.06.396-.6 1.008-.972 1.824-.972 1.536 0 2.448 1.14 2.448 2.988 0 1.86-.984 3-2.616 3-.588 0-1.104-.12-1.536-.312l-.864-.372c-.06-.024-.084-.06-.084-.12v-7.692c0-.072.036-.108.108-.108h.564c.072 0 .108.036.108.108zm-.012 7.272l.492.252c.3.132.732.252 1.224.252 1.152 0 1.836-.852 1.836-2.28 0-1.416-.648-2.268-1.74-2.268-1.212 0-1.812 1.044-1.812 2.4v1.644zm6.648-7.272v7.344c0 .264.108.432.312.432.036 0 .072 0 .108-.012.06-.024.108 0 .132.06l.204.468c.024.06 0 .12-.06.144-.12.036-.252.06-.384.06-.684 0-1.092-.42-1.092-1.152v-7.344c0-.072.036-.108.108-.108h.564c.072 0 .108.036.108.108zm6.096 8.208l-.384.108c-.42.132-.84.18-1.296.18-1.656 0-2.64-1.152-2.64-3 0-1.836.996-2.988 2.628-2.988 1.356 0 2.172.66 2.172 1.776 0 .84-.528 1.332-1.608 1.512l-2.34.384c.156 1.008.804 1.596 1.788 1.596.408 0 .78-.048 1.116-.156l.36-.108c.072-.012.12.012.144.084l.144.48c.012.072-.012.12-.084.132zm-3.528-2.688l2.268-.384c.636-.108.96-.384.96-.84 0-.672-.516-1.068-1.404-1.068-1.116 0-1.788.756-1.824 2.292zm8.352-5.4h2.652c2.16 0 3.468 1.572 3.468 4.128 0 2.544-1.32 4.128-3.468 4.128h-2.652c-.072 0-.108-.036-.108-.108v-8.04c0-.072.036-.108.108-.108zm.684.72v6.816h1.968c1.68 0 2.664-1.272 2.664-3.408 0-2.148-.984-3.408-2.664-3.408h-1.968zm11.04 7.368l-.384.108c-.42.132-.84.18-1.296.18-1.656 0-2.64-1.152-2.64-3 0-1.836.996-2.988 2.628-2.988 1.356 0 2.172.66 2.172 1.776 0 .84-.528 1.332-1.608 1.512l-2.34.384c.156 1.008.804 1.596 1.788 1.596.408 0 .78-.048 1.116-.156l.36-.108c.072-.012.12.012.144.084l.144.48c.012.072-.012.12-.084.132zm-3.528-2.688l2.268-.384c.636-.108.96-.384.96-.84 0-.672-.516-1.068-1.404-1.068-1.116 0-1.788.756-1.824 2.292zm10.404-2.76l-1.56 3.468a19.21 19.21 0 0 0-.72 2.052c-.012.072-.06.096-.12.096h-.648c-.06 0-.108-.024-.12-.096a15.06 15.06 0 0 0-.72-2.052l-1.56-3.468c-.036-.084 0-.132.084-.132h.6c.06 0 .096.024.12.084l1.356 3.012c.228.54.396 1.08.48 1.44.036.108.132.108.168 0 .072-.36.252-.912.48-1.44l1.356-3.012c.024-.06.06-.084.12-.084h.6c.084 0 .12.048.084.132zm5.28 5.448l-.384.108c-.42.132-.84.18-1.296.18-1.656 0-2.64-1.152-2.64-3 0-1.836.996-2.988 2.628-2.988 1.356 0 2.172.66 2.172 1.776 0 .84-.528 1.332-1.608 1.512l-2.34.384c.156 1.008.804 1.596 1.788 1.596.408 0 .78-.048 1.116-.156l.36-.108c.072-.012.12.012.144.084l.144.48c.012.072-.012.12-.084.132zm-3.528-2.688l2.268-.384c.636-.108.96-.384.96-.84 0-.672-.516-1.068-1.404-1.068-1.116 0-1.788.756-1.824 2.292zm6.324-5.52v7.344c0 .264.108.432.312.432.036 0 .072 0 .108-.012.06-.024.108 0 .132.06l.204.468c.024.06 0 .12-.06.144-.12.036-.252.06-.384.06-.684 0-1.092-.42-1.092-1.152v-7.344c0-.072.036-.108.108-.108h.564c.072 0 .108.036.108.108zm4.392 2.508c1.62 0 2.616 1.152 2.616 2.988 0 1.848-.996 3-2.616 3s-2.616-1.152-2.616-3c0-1.836.996-2.988 2.616-2.988zm0 .72c-1.152 0-1.836.852-1.836 2.268 0 1.428.684 2.28 1.836 2.28 1.152 0 1.848-.852 1.848-2.28 0-1.416-.696-2.268-1.848-2.268zm4.764-.492l.048.72c.024.108.096.12.168.012.444-.624 1.044-.96 1.836-.96 1.536 0 2.448 1.14 2.448 2.988 0 1.86-.96 3-2.592 3-.516 0-.912-.072-1.368-.288l-.36-.168v2.76c0 .072-.036.108-.108.108h-.564c-.072 0-.108-.036-.108-.108V29.36c0-.072.036-.108.108-.108h.372c.072 0 .108.036.12.108zm.168 4.548l.492.24c.36.168.732.252 1.224.252 1.152 0 1.836-.852 1.836-2.28 0-1.404-.648-2.268-1.752-2.268-1.188 0-1.8 1.032-1.8 2.4v1.656zm6.468-4.548l.036.708c.036.12.108.12.192.024.456-.636.984-.96 1.812-.96.852 0 1.38.492 1.644 1.08.084.132.18.108.264.012.504-.78 1.128-1.092 1.932-1.092 1.236 0 1.968.888 1.968 2.328v3.432c0 .072-.036.108-.108.108h-.564c-.072 0-.108-.036-.108-.108V31.52c0-1.044-.444-1.668-1.26-1.668-1.26 0-1.788 1.008-1.788 2.412v2.628c0 .072-.036.108-.108.108h-.564c-.072 0-.108-.036-.108-.108v-3.384c0-1.032-.468-1.656-1.272-1.656-1.26 0-1.788 1.008-1.788 2.412v2.628c0 .072-.036.108-.108.108h-.564c-.072 0-.108-.036-.108-.108V29.36c0-.072.036-.108.108-.108h.372c.072 0 .108.036.12.108zm13.644 5.472l-.384.108c-.42.132-.84.18-1.296.18-1.656 0-2.64-1.152-2.64-3 0-1.836.996-2.988 2.628-2.988 1.356 0 2.172.66 2.172 1.776 0 .84-.528 1.332-1.608 1.512l-2.34.384c.156 1.008.804 1.596 1.788 1.596.408 0 .78-.048 1.116-.156l.36-.108c.072-.012.12.012.144.084l.144.48c.012.072-.012.12-.084.132zm-3.528-2.688l2.268-.384c.636-.108.96-.384.96-.84 0-.672-.516-1.068-1.404-1.068-1.116 0-1.788.756-1.824 2.292zm6.132-2.784l.048.732c.036.108.108.108.18.012.456-.648 1.092-.972 1.92-.972 1.32 0 2.124.888 2.124 2.328v3.432c0 .072-.036.108-.108.108h-.564c-.072 0-.108-.036-.108-.108V31.52c0-1.044-.528-1.668-1.416-1.668-1.188 0-1.884.888-1.884 2.412v2.628c0 .072-.036.108-.108.108h-.564c-.072 0-.108-.036-.108-.108V29.36c0-.072.036-.108.108-.108h.372c.072 0 .108.036.108.108zm7.128-.108h1.332c.072 0 .108.036.108.108v.492c0 .072-.036.108-.108.108h-1.332v3.636c0 .516.228.804.636.804.096 0 .204-.024.312-.06.06-.024.108 0 .144.06l.204.444c.024.06.012.12-.048.144a1.432 1.432 0 0 1-.612.132c-.888 0-1.416-.552-1.416-1.512V29.96h-.552c-.072 0-.108-.036-.108-.108v-.492c0-.072.036-.108.108-.108h.552v-1.44c0-.06.024-.108.084-.12l.576-.192c.072-.024.12.012.12.096v1.656zm5.76-2.508h2.652c2.16 0 3.468 1.572 3.468 4.128 0 2.544-1.32 4.128-3.468 4.128h-2.652c-.072 0-.108-.036-.108-.108v-8.04c0-.072.036-.108.108-.108zm.684.72v6.816h1.968c1.68 0 2.664-1.272 2.664-3.408 0-2.148-.984-3.408-2.664-3.408H232.9zm7.26 1.98l.444-.132c.348-.108.78-.18 1.284-.18 1.464 0 2.376.876 2.376 2.328v3.432c0 .072-.036.108-.108.108h-.372c-.072 0-.108-.036-.12-.108l-.036-.54c-.036-.156-.12-.144-.24-.012-.408.516-1.02.78-1.908.78-1.212 0-1.92-.66-1.92-1.728 0-1.044.732-1.752 2.112-1.764h1.812v-.156c0-1.02-.576-1.608-1.608-1.608-.42 0-.792.048-1.092.144l-.42.12c-.072.024-.12 0-.144-.072l-.132-.468c-.024-.072 0-.12.072-.144zm3.324 2.856h-1.812c-.912 0-1.332.42-1.332 1.044 0 .672.432 1.068 1.2 1.068 1.236 0 1.944-.708 1.944-1.956V32.3zm3.588-3.048h1.332c.072 0 .108.036.108.108v.492c0 .072-.036.108-.108.108h-1.332v3.636c0 .516.228.804.636.804.096 0 .204-.024.312-.06.06-.024.108 0 .144.06l.204.444c.024.06.012.12-.048.144a1.432 1.432 0 0 1-.612.132c-.888 0-1.416-.552-1.416-1.512V29.96h-.552c-.072 0-.108-.036-.108-.108v-.492c0-.072.036-.108.108-.108h.552v-1.44c0-.06.024-.108.084-.12l.576-.192c.072-.024.12.012.12.096v1.656zm2.988.192l.444-.132c.348-.108.78-.18 1.284-.18 1.464 0 2.376.876 2.376 2.328v3.432c0 .072-.036.108-.108.108h-.372c-.072 0-.108-.036-.12-.108l-.036-.54c-.036-.156-.12-.144-.24-.012-.408.516-1.02.78-1.908.78-1.212 0-1.92-.66-1.92-1.728 0-1.044.732-1.752 2.112-1.764h1.812v-.156c0-1.02-.576-1.608-1.608-1.608-.42 0-.792.048-1.092.144l-.42.12c-.072.024-.12 0-.144-.072l-.132-.468c-.024-.072 0-.12.072-.144zm3.324 2.856h-1.812c-.912 0-1.332.42-1.332 1.044 0 .672.432 1.068 1.2 1.068 1.236 0 1.944-.708 1.944-1.956V32.3zM88.324 53.588h-5.652l-.882 2.25c-.036.108-.108.162-.216.162h-1.728c-.162 0-.216-.09-.162-.234l3.096-7.902c.54-1.44 1.026-2.862 1.386-4.266.018-.126.09-.18.216-.18h2.214c.126 0 .198.054.216.162.378 1.422.864 2.844 1.404 4.284l3.096 7.902c.054.144 0 .234-.162.234h-1.728c-.108 0-.18-.054-.216-.162l-.882-2.25zm-4.95-1.818h4.248l-.954-2.358c-.414-1.116-.846-2.43-1.026-3.33-.054-.198-.252-.198-.288 0-.18.9-.612 2.196-1.044 3.33l-.936 2.358zm10.206-8.352h4.59c2.736 0 4.338 1.494 4.338 3.996 0 2.664-1.818 4.158-5.148 4.158h-1.944v4.23c0 .126-.072.198-.198.198H93.58c-.126 0-.198-.072-.198-.198V43.616c0-.126.072-.198.198-.198zm1.836 1.818v4.536h1.944c2.016 0 3.078-.846 3.078-2.358 0-1.368-.846-2.178-2.268-2.178h-2.754zm11.394-1.62v12.186c0 .126-.072.198-.198.198h-1.638c-.126 0-.198-.072-.198-.198V43.616c0-.126.072-.198.198-.198h1.638c.126 0 .198.072.198.198zm16.38 0v12.186c0 .126-.072.198-.198.198h-1.656c-.126 0-.198-.072-.198-.198v-5.364h-5.778v5.364c0 .126-.072.198-.198.198h-1.638c-.126 0-.198-.072-.198-.198V43.616c0-.126.072-.198.198-.198h1.638c.126 0 .198.072.198.198v5.022h5.778v-5.022c0-.126.072-.198.198-.198h1.656c.126 0 .198.072.198.198zm4.014-.666c.756 0 1.188.45 1.188 1.206 0 .774-.432 1.224-1.188 1.224s-1.206-.45-1.206-1.224c0-.756.45-1.206 1.206-1.206zm1.206 4.518v8.334c0 .126-.072.198-.198.198h-1.602c-.126 0-.198-.072-.198-.198v-6.75h-.882c-.126 0-.198-.072-.198-.198v-1.386c0-.126.072-.198.198-.198h2.682c.126 0 .198.072.198.198zm3.492 10.386l.702.198a6.473 6.473 0 0 0 1.548.198c1.242 0 2.376-.486 2.7-1.926.054-.792.072-.738.09-1.116 0-.126-.09-.216-.252-.054-.594.648-1.458 1.044-2.484 1.044-2.376 0-3.816-1.764-3.816-4.518 0-2.898 1.566-4.59 4.194-4.59.738 0 1.512.126 2.214.414l1.602.666c.108.036.162.108.162.216v7.542c0 2.664-1.566 4.122-4.32 4.122-.666 0-1.458-.09-1.962-.234l-.882-.252c-.126-.036-.18-.126-.144-.252l.414-1.332c.036-.108.126-.162.234-.126zm4.662-8.406l-.54-.252c-.396-.198-.936-.306-1.458-.306-1.386 0-2.196 1.008-2.196 2.736 0 1.638.738 2.754 2.07 2.754 1.368 0 2.124-.99 2.124-2.718v-2.214zm6.3-6.156v2.628c0 .864-.09 1.44-.288 2.052-.072.198.036.324.252.162.612-.666 1.386-1.044 2.412-1.044 2.052 0 3.294 1.278 3.294 3.402v5.31c0 .126-.072.198-.198.198h-1.602c-.126 0-.198-.072-.198-.198v-5.094c0-1.152-.594-1.818-1.566-1.818-1.458 0-2.088 1.152-2.106 2.718v4.194c0 .126-.072.198-.198.198h-1.602c-.126 0-.198-.072-.198-.198v-12.51c0-.126.072-.198.198-.198h1.602c.126 0 .198.072.198.198zm20.034 4.194l-1.476 4.986c-.414 1.422-.666 2.286-.918 3.348-.018.126-.09.18-.216.18h-1.98c-.126 0-.198-.054-.216-.162-.162-.612-.36-1.242-.54-1.89l-.648-1.908c-.108-.36-.252-.954-.324-1.314-.054-.234-.198-.216-.252 0-.072.378-.216.99-.324 1.314l-.63 1.908c-.198.648-.396 1.278-.54 1.872-.018.126-.09.18-.216.18h-1.998c-.126 0-.198-.054-.216-.18-.252-1.062-.504-1.908-.918-3.348l-1.476-4.986c-.054-.126.018-.216.162-.216h1.62c.126 0 .198.054.234.162l.918 3.15c.306 1.152.486 1.98.648 2.88.036.198.234.198.288 0 .216-.9.54-2.016.864-3.186l.954-2.844c.036-.108.108-.162.216-.162h1.08c.108 0 .18.054.216.162l.954 2.844c.342 1.152.666 2.286.864 3.186.054.198.252.198.288 0 .162-.9.342-1.692.648-2.88l.918-3.15c.036-.108.108-.162.234-.162h1.62c.144 0 .216.09.162.216zm2.106.072l.684-.198a6.715 6.715 0 0 1 1.962-.27c2.43 0 3.924 1.26 3.924 3.438v5.274c0 .126-.072.198-.198.198h-.9c-.126 0-.198-.054-.234-.162l-.144-.558c-.108-.252-.216-.252-.45-.036-.558.612-1.368.954-2.466.954-1.998 0-3.114-1.026-3.114-2.718s1.152-2.772 3.276-2.772h2.25V50.6c0-1.098-.702-1.692-2.034-1.692-.522 0-.972.054-1.404.18l-.648.198c-.126.036-.216-.018-.252-.144l-.396-1.332c-.036-.126.018-.216.144-.252zm4.59 4.716h-2.25c-.882 0-1.296.414-1.296 1.026 0 .702.486 1.134 1.35 1.134 1.422 0 2.196-.702 2.196-2.034v-.126zm12.06-4.77l-4.95 12.204c-.036.108-.108.162-.216.162h-1.656c-.144 0-.216-.09-.162-.234l.954-2.268c.486-1.278.306-2.358-.342-4.05l-2.394-5.814c-.054-.144.018-.234.162-.234h1.674c.108 0 .18.054.234.144l1.422 3.402c.306.81.63 1.944.738 2.628.036.18.234.18.288-.018.126-.666.468-1.836.774-2.61l1.404-3.402c.054-.09.126-.144.234-.144h1.674c.144 0 .216.09.162.234zm5.364 5.094l-1.818-.468c-1.494-.378-2.196-1.152-2.196-2.448 0-1.62 1.206-2.592 3.294-2.592.81 0 1.638.126 2.232.288l.792.198c.126.036.18.126.144.252l-.378 1.35c-.036.126-.126.18-.252.144l-.792-.216c-.486-.144-1.206-.216-1.746-.216-.828 0-1.314.306-1.314.792 0 .414.252.666.81.828l1.8.468c1.566.396 2.268 1.206 2.268 2.502 0 1.692-1.26 2.718-3.384 2.718a10.07 10.07 0 0 1-2.754-.378l-.702-.198c-.126-.036-.18-.126-.144-.252l.414-1.35c.036-.108.126-.162.234-.126l.648.18c.684.198 1.638.306 2.304.306.882 0 1.386-.342 1.386-.9 0-.432-.252-.702-.846-.882z"/>
        </g>
    </g>
</svg>
