<svg xmlns="http://www.w3.org/2000/svg" xmlns:xlink="http://www.w3.org/1999/xlink" width="199" height="69" viewBox="0 0 199 69">
    <defs>
        <path id="a" d="M2.883.745c-.229.018-.459.026-.807.044L.672 2.536l1.616-.115A509 509 0 0 0 3.59.876V.672c-.247.026-.476.055-.707.073z"/>
        <path id="c" d="M.546.948h1V2.19h-1z"/>
        <path id="e" d="M.108.883h5.538V13H.108z"/>
        <path id="g" d="M.495.12h1V1h-1z"/>
    </defs>
    <g fill="none" fill-rule="evenodd">
        <path fill="#324285" d="M3.969 18.278l-1.036 2.02c.25 0 .412.001.573-.002 1.422-.032 2.843-.104 4.264-.087 1.41.017 2.82.107 4.229.198 1.228.08 2.452.207 3.678.31.09.006.224.007.27-.046.268-.31.516-.639.868-1.083-2.201-.302-4.277-.644-6.366-.857-2.112-.216-4.238-.302-6.48-.453M20.697 53.114c-.241-.149-.454-.345-.727-.557-.922 4.208-1.236 8.386-1.412 12.67l1.857.914c0-.423-.005-.732 0-1.042.048-2.536.07-5.074.158-7.61.042-1.217.189-2.43.33-3.642.035-.3.107-.54-.206-.733"/>
        <path fill="#4CAD4D" d="M55.69 9.917a169.973 169.973 0 0 1-1.008 3.7 47.634 47.634 0 0 1-.744 2.318c-.32.928-.668 1.848-.99 2.775-.114.33-.312.7-.247 1.005.066.313.406.568.671.905 1.867-3.76 3.251-7.632 4.483-11.637L56.247 7.61c-.204.85-.366 1.582-.557 2.306"/>
        <path fill="#F1B541" d="M24.19 55.254c-.031.138-.068.212-.062.282.17 1.99.273 3.99.539 5.969.274 2.054.7 4.088 1.08 6.127.033.175.186.414.334.463.52.17 1.063.267 1.693.416-1.144-4.156-2.122-8.316-2.474-12.673-.341-.181-.706-.372-1.11-.584"/>
        <path fill="#047FAD" d="M14.125 6.579l-1.397 1.1c3.826 1.919 7.46 3.972 10.85 6.376l1.087-.573c-3.289-2.618-6.754-4.842-10.347-6.933l-.193.03M13.805 44.83c-.11.116-.183.179-.24.254-.908 1.227-1.842 2.439-2.715 3.692-.82 1.175-1.583 2.389-2.352 3.597-.56.879-1.094 1.776-1.63 2.67-.045.076-.063.226-.02.287.338.454.694.896 1.069 1.373.074-.108.134-.18.175-.26.206-.406.39-.824.61-1.221.779-1.402 1.529-2.82 2.364-4.188 1.022-1.676 2.12-3.307 3.179-4.962.05-.078.09-.213.058-.287-.143-.31-.314-.61-.498-.955M61.744 13.14c-.088.106-.159.169-.2.248-.193.364-.365.741-.567 1.1-.9 1.6-1.775 3.216-2.723 4.789-.83 1.379-1.739 2.713-2.628 4.057-.269.406-.144 1.124.3 1.399.04-.034.093-.066.127-.111.665-.871 1.35-1.73 1.986-2.621a110.188 110.188 0 0 0 2.37-3.462 83.021 83.021 0 0 0 2.037-3.273c.14-.236.501-.462.25-.824-.296-.424-.61-.836-.952-1.302M45.684 55.017l-.971.515c3.215 2.633 6.585 4.826 10.184 6.96.44-.329.95-.706 1.468-1.09-1.876-1.045-3.688-1.997-5.442-3.045-1.77-1.06-3.48-2.215-5.239-3.34"/>
        <path fill="#4CAD4D" d="M37.095 64.017c-1.167-1.93-2.232-3.922-3.337-5.89-.216-.383-.855-.593-1.298-.406 1.677 3.937 3.812 7.621 6.193 11.191l1.622-.21c-.202-.31-.387-.603-.583-.889-.87-1.263-1.806-2.485-2.597-3.796M7.228 13.26c4.213.905 8.237 2.033 12.183 3.609l.979-.77c-3.83-1.821-7.737-3.228-11.773-4.413L7.228 13.26"/>
        <path fill="#324285" d="M49.557 3.405c-.043-.02-.11.005-.145.008.035.73.11 1.437.096 2.142-.04 2.234-.086 4.468-.186 6.7-.048 1.068-.21 2.131-.344 3.194-.062.497.388 1.207.884 1.317.014-.019.038-.038.042-.06.207-1.155.44-2.307.612-3.467.144-.958.245-1.923.318-2.888.15-1.948.27-3.899.391-5.85.006-.095-.049-.243-.122-.284-.508-.284-1.027-.548-1.546-.812"/>
        <path fill="#4CAD4D" d="M16.414 49.092c-.074.114-.166.225-.222.352-.318.719-.631 1.442-.939 2.167-.417.977-.852 1.949-1.233 2.94-.341.89-.622 1.803-.925 2.706-.294.876-.545 1.77-.887 2.626-.229.573-.302.99.345 1.335.35.186.624.514.977.816.111-.471.196-.854.291-1.234.327-1.305.636-2.615.993-3.912.298-1.078.634-2.147.988-3.208a59.604 59.604 0 0 1 1.131-3.132c.236-.597.106-1.105-.519-1.456"/>
        <path fill="#F1B541" d="M12.12 41.063c-.7.754-1.412 1.498-2.1 2.263-1.966 2.188-3.915 4.394-5.893 6.572-.347.381-.398.683-.094 1.092.185.252.311.548.49.87.11-.133.171-.202.227-.275.74-.968 1.458-1.954 2.222-2.903a91.073 91.073 0 0 1 2.697-3.218 72.6 72.6 0 0 1 2.644-2.82c.392-.397.403-1.102-.194-1.58M19.165 3.514c-.477.254-.938.497-1.43.757.093.112.159.23.256.303.69.514 1.4 1.006 2.082 1.532 2.413 1.86 4.735 3.827 6.907 5.965.34.336 1.03.334 1.434-.028-2.817-3.141-5.988-5.896-9.25-8.528"/>
        <path fill="#4CAD4D" d="M29.325.327c.08.142.138.266.215.375.609.849 1.255 1.673 1.825 2.547a205.267 205.267 0 0 1 3.154 5.01c.438.718.825 1.471 1.184 2.232.348.735.77 1.005 1.502.793C35.484 7.345 33.33 3.664 30.94.142l-1.615.185"/>
        <path fill="#324285" d="M57.804 31.782l.1 1.082c3.633-2.26 6.857-4.951 9.948-7.771l-.464-1.486c-3.036 3.01-6.158 5.8-9.584 8.175M59.155 49.185c-1.772-.082-3.537-.31-5.302-.49a1.184 1.184 0 0 0-1.263.82c.85.534 11.674 1.808 12.412 1.371.172-.31.335-.569.464-.845.117-.249.198-.513.316-.83-.261.022-.372.04-.484.04-2.048-.015-4.1.028-6.143-.066"/>
        <path fill="#F1B541" d="M5.67 24.876a48.507 48.507 0 0 0-3.158.598c-.728.161-1.693.057-1.689 1.238 0 .025-.02.048-.025.074l-.128.79c2.16-.528 4.218-1.096 6.304-1.523 2.104-.429 4.235-.72 6.425-1.083.121-.26.281-.61.47-1.015-1.366.12-2.627.206-3.88.348-1.444.163-2.884.353-4.319.573"/>
        <path fill="#4CAD4D" d="M55.849 54.432a71.734 71.734 0 0 1-3.095-1.018 38.775 38.775 0 0 1-2.418-.907c-.497-.209-1.162-.004-1.396.547 3.701 1.815 7.55 3.245 11.488 4.424l1.242-1.526c-.814-.199-1.519-.36-2.218-.543-1.204-.317-2.41-.625-3.603-.977"/>
        <path fill="#F1B541" d="M64.685 18.39c-.928 1.182-1.82 2.396-2.796 3.537a170.23 170.23 0 0 1-4.355 4.872c-.625.677-.741 1.005-.297 1.752 3.105-2.78 5.897-5.83 8.494-9.075l-.781-1.466c-.138.198-.196.293-.265.38M48.96 62.673a108.872 108.872 0 0 1-3.344-2.831c-1.057-.934-2.078-1.907-3.106-2.873-.41-.387-.918-.421-1.402-.058.137.67 7.948 8.008 9.06 8.508l1.247-.646c.01-.02.036-.08.075-.17-.079-.065-.138-.115-.199-.16-.778-.59-1.576-1.154-2.33-1.77"/>
        <path fill="#324285" d="M6.233 40.678c-1.647 1.327-3.207 2.76-4.784 4.129l.51 1.505c3.068-3.127 6.257-5.962 9.71-8.447-.09-.383-.164-.692-.253-1.079-1.809 1.352-3.54 2.57-5.183 3.892"/>
        <path fill="#F1B541" d="M44.964 6.909c-.125-1.12-.336-2.232-.53-3.344a32.402 32.402 0 0 0-.412-1.918c-.033-.14-.127-.34-.238-.375-.503-.163-1.023-.276-1.67-.442.11.381.195.649.263.922.25 1.001.507 2.001.733 3.008.345 1.529.705 3.056.985 4.597.217 1.186.363 2.39.451 3.593.032.442.23.576.561.696.164.058.318.144.554.253-.03-.252-.045-.362-.056-.472-.21-2.173-.399-4.348-.64-6.518"/>
        <path fill="#324285" d="M36.8 57.701c2.319 3.633 4.99 6.897 7.83 9.933.337-.099.553-.156.764-.228.205-.07.406-.157.65-.255-2.98-3.005-5.767-6.104-8.2-9.593l-1.043.143"/>
        <path fill="#F1B541" d="M64.099 43.077c-.833.187-1.661.393-2.496.56-.745.148-1.495.277-2.248.376-.994.13-1.994.217-2.99.333-.603.07-.901.388-.977 1.047.087.011.175.037.262.032.319-.019.638-.042.957-.075 2.356-.239 4.715-.452 7.064-.733 1.112-.133 2.206-.398 3.309-.603.48-.09 1.032-.09 1.03-.8 0-.024.026-.046.03-.072.085-.354.167-.709.263-1.116-.667.187-1.273.372-1.89.525-.767.189-1.543.351-2.314.526"/>
        <path fill="#047FAD" d="M35.947.074c1.91 3.881 3.57 7.838 4.731 11.942l1.072.268c-.948-4.265-2.39-8.263-4.072-12.21h-1.73zM68.908 36.062c-.26.126-.456.225-.656.317-.7.33-1.393.663-2.098.976-.594.264-1.2.501-1.802.746-.643.261-1.282.53-1.932.772-.693.255-1.393.492-2.095.722-.823.274-1.645.553-2.48.787-.603.17-.887.488-.903 1.19.096 0 .195.014.286-.004.195-.039.385-.098.578-.145.729-.178 1.464-.337 2.187-.538.87-.242 1.732-.514 2.594-.786a39.356 39.356 0 0 0 1.666-.568c.83-.304 1.656-.619 2.48-.939a79.922 79.922 0 0 0 2.045-.819c.1-.042.232-.16.237-.25.024-.455.01-.912.01-1.408l-.117-.053M11.853 28.034l-.129.026c-.308.06-11.46 3.861-11.599 3.934a.053.053 0 0 0-.02.044L.01 33.7c.29-.114 11.681-4.658 11.952-4.679l.09-.063a5.68 5.68 0 0 1 .197-.852c-.119-.134-.266-.057-.395-.072"/>
        <path fill="#4CAD4D" d="M4.703 35.953c-1.25.732-2.462 1.531-3.683 2.313-.275.174-.692.363-.742.607-.091.439.046.927.099 1.536 3.541-2.662 7.15-4.973 10.989-6.91l.116-1.07c-1.077.523-2.053.97-3.003 1.465-1.27.664-2.54 1.334-3.776 2.059"/>
        <path fill="#324285" d="M23.466 1.838c.604.636 1.144 1.184 1.66 1.751 1.33 1.462 2.676 2.91 3.965 4.407.817.95 1.537 1.983 2.313 2.967.13.165.312.353.499.39.238.046.504-.05.839-.095-2.323-3.567-5.031-6.783-7.925-9.904l-1.351.484"/>
        <path fill="#4CAD4D" d="M57.984 36.143l-.13 1.02c3.975-1.684 7.59-3.766 11.085-6.085l-.185-1.54c-3.475 2.54-6.997 4.8-10.77 6.605"/>
        <path fill="#F1B541" d="M6.707 51.209c-.359.588-.801 1.123-1.19 1.693-.078.116-.146.333-.09.426.266.442.575.855.92 1.35l.247-.383c.715-1.111 1.43-2.222 2.14-3.336.062-.097.082-.218.123-.33-.422.06-.744.115-1.067.15-.402.045-.81-.02-1.083.43"/>
        <path fill="#047FAD" d="M13.118 9.624c-.435-.243-.905-.423-1.36-.632-.267-.124-.502-.137-.711.123-.124.154-.291.272-.432.411-.235.231-.464.467-.727.734l3.703 1.434.166-.018c-.081-.54-.13-1.056-.25-1.555a.868.868 0 0 0-.39-.497M9.871 56.396c-.217.431-.419.87-.604 1.313-.055.13-.104.351-.037.428.397.462.828.894 1.3 1.39l1.414-3.685-1.821.255c-.045.052-.181.16-.252.3"/>
        <path fill="#4CAD4D" d="M23.357 62.08c-.44.397-.87.77-1.276 1.165-.09.088-.135.263-.134.397.005.458.027.917.064 1.374.04.487.105.974.163 1.497.088-.034.164-.04.206-.08.42-.411.84-.826 1.248-1.248a.396.396 0 0 0 .106-.278c-.088-.886-.19-1.77-.294-2.653-.008-.068-.06-.13-.083-.174"/>
        <path fill="#F1B541" d="M60.935 18.756c.593-.059 1.073-.086 1.546-.163.19-.029.42-.119.533-.26.414-.519.785-1.072 1.193-1.638l-.953-1.53-2.319 3.591M18.396 6.616c-.238-.206-.503-.378-.761-.561-.425-.3-.852-.596-1.29-.902l-1.435.923 4.019 2.57c-.095-.618-.155-1.12-.257-1.612-.032-.153-.153-.311-.276-.418M50.849 60.925c.068.433.138.865.213 1.297.025.142.017.343.107.413.555.434 1.133.839 1.71 1.258.414-.268.798-.5 1.162-.76.106-.073.158-.224.207-.297-1.167-.75-2.243-1.44-3.368-2.16-.02.15-.039.2-.031.249M63.336 40.416c-.11.036-.195.15-.287.226.524.265.954.494 1.394.7.143.068.33.146.466.108.914-.25 1.822-.527 2.728-.804.092-.028.166-.11.28-.19l-2.031-.84c-.897.28-1.726.533-2.55.8M41.153 2.919c-.11-.367-.234-.73-.38-1.183-.093.129-.142.177-.166.234-.209.493-.415.986-.618 1.482-.063.154-.19.34-.148.467.291.889.62 1.767.954 2.698.048-.038.15-.082.187-.157.153-.307.29-.624.426-.94.133-.307.372-.574.235-.966-.188-.536-.324-1.091-.49-1.635M29.43 63.828l-.372-1.108c-.075.052-.116.065-.128.09-.217.467-.434.936-.644 1.407-.06.138-.168.307-.134.427.275.961.58 1.913.897 2.94.084-.077.182-.13.222-.21.144-.294.302-.589.394-.9.118-.398.464-.739.255-1.225-.198-.459-.33-.944-.49-1.421"/>
        <path fill="#047FAD" d="M57.918 13.54c.51-.053.956-.092 1.399-.151.169-.022.419-.034.483-.14.294-.486.535-1.004.79-1.501l-1.406-1.493-1.266 3.286M5.627 33.847a85.534 85.534 0 0 0-1.737-.395.29.29 0 0 0-.173.036c-.731.374-1.461.747-2.187 1.129-.195.103-.372.237-.657.422.679.087 1.202.104 1.698.231.488.126.855-.031 1.255-.263.617-.36 1.26-.675 1.947-1.036-.04-.033-.084-.109-.146-.124"/>
        <path fill="#324285" d="M11.68 16.405c-.128-.507-.496-.635-.927-.713l-1.967-.357c.078.24.136.48.233.706.236.55.301 1.263 1.153 1.26a3.82 3.82 0 0 1 .593.053c.44.066.878.143 1.368.224-.02-.12-.019-.194-.046-.255-.136-.307-.326-.598-.407-.918M60.123 52.2c-.585-.162-1.203-.208-1.81-.29-.184-.024-.37-.022-.608-.034.17.39.38.72.456 1.079.114.525.483.661.913.755.177.037.36.048.538.081.46.089.92.183 1.492.298-.188-.488-.315-.885-.496-1.256-.118-.239-.278-.575-.485-.633M16.024 58.368c-.181.796-.33 1.6-.503 2.481.46-.176.86-.376 1.287-.482.576-.144.628-.576.689-1.035.069-.514.154-1.026.228-1.537.015-.102.01-.205.016-.307-.497.184-.958.337-1.401.529-.134.059-.285.214-.316.351"/>
        <path fill="#047FAD" d="M34.037 64.08c-.072.364-.118.735-.204 1.096-.088.368-.161.708.076 1.065.203.307.332.662.501.99.239.467.483.928.725 1.39.034-.001.068-.003.101-.006l.334-2.21-1.405-2.606c-.058.125-.111.199-.128.28M35.035 1.405l-.379-.729c-.055.136-.088.187-.095.241-.054.384-.102.77-.154 1.153-.08.604-.142 1.198.298 1.72.141.166.216.388.321.584l.721 1.346c.086-.424.187-.738.203-1.055.022-.46.317-.904.057-1.383-.337-.619-.65-1.25-.972-1.877"/>
        <path fill="#324285" d="M52.37 9.97c-.01.63-.169 1.258-.277 1.985.26-.107.454-.18.642-.266.533-.24 1.183-.303 1.224-1.137.032-.637.226-1.266.368-1.998-.4.16-.686.296-.986.39-.519.165-.959.329-.971 1.026"/>
        <path fill="#047FAD" d="M56.362 59.573l1.342.663 1.474-1.376-3.08-1.216.264 1.93"/>
        <path fill="#4CAD4D" d="M62.369 46.27c.083.107.125.176.178.23.318.32.628.645.962.946.112.1.287.195.429.19.805-.036 1.609-.099 2.413-.16.099-.007.195-.055.33-.095l-1.325-1.47-2.987.358"/>
        <path fill="#324285" d="M28.864 3.542c.04.29.085.61.238.846.342.526.751 1.008 1.136 1.507.097.127.203.25.36.442v-2.08c-.57-.768-1.182-1.588-1.792-2.407a7.245 7.245 0 0 0 .058 1.692"/>
        <path fill="#4CAD4D" d="M47.471 2.834l-1.339 1.508c.13.952.256 1.887.394 2.908L47.9 6l-.22-3.01-.208-.156M6.554 22.124c-.3-.387-.66-.42-1.08-.35-.093.016-.188.03-.283.039l-2.054.185c.046.085.067.164.117.214.258.263.543.5.78.779.29.336.597.545 1.07.446.43-.09.87-.14 1.308-.19.346-.038.695-.05 1.187-.085-.418-.408-.775-.69-1.045-1.038M60.686 46.477c-.074-.069-.225-.084-.339-.082-.709.012-1.418.032-2.126.057-.089.004-.176.047-.272.075.644.87 1.292 1.596 2.494 1.33.44-.097.907-.054 1.402-.076-.035-.099-.04-.175-.08-.217-.354-.367-.708-.736-1.079-1.087M23.081 57.678c-.462.434-.854.797-1.238 1.169-.05.046-.069.143-.07.216-.006.793-.01 1.586-.003 2.379 0 .058.07.116.197.31.349-.396.657-.715.925-1.062.148-.191.31-.425.326-.65.032-.442-.032-.891-.06-1.34-.018-.303-.045-.606-.077-1.022"/>
        <path fill="#324285" d="M7.345 15.648a1.05 1.05 0 0 0-1.33-.736L4.857 16.67l2.973.305c-.055-.178-.082-.286-.122-.39-.12-.312-.28-.614-.364-.936M67.277 28.556c-.916.111-1.886-.013-2.613.796-.331.368-.792.621-1.283.994.695 0 1.279.008 1.862-.007a.716.716 0 0 0 .38-.136c.698-.506 1.389-1.023 2.079-1.541.049-.036.076-.102.165-.227l-.338.067c-.084.018-.167.043-.252.054M1.935 40.928c.342-.046.538-.07.732-.098.792-.113 1.647.109 2.314-.602.399-.424.926-.728 1.468-1.14h-2.08c-.81.61-1.575 1.19-2.434 1.84"/>
        <path fill="#047FAD" d="M57.79 14.832c-.209.059-.477.179-.563.35-.31.602-.55 1.238-.85 1.932.578-.083 1.118-.157 1.655-.245.05-.008.09-.1.123-.16.349-.667.694-1.336 1.073-2.067-.159.006-.276.003-.394.019-.35.049-.707.076-1.045.17"/>
        <path fill="#324285" d="M39.306 63.151c0 .657-.02 1.185.01 1.71.013.217.097.457.22.637.345.506.727.986 1.095 1.476.133.178.272.353.467.607l-.127-2.274c-.5-.645-1.053-1.363-1.665-2.156"/>
        <path fill="#047FAD" d="M14.834 10.428L15.1 12.3c.698.314 1.427.64 2.236 1.005l-.299-1.736-2.202-1.142M11.642 52.77c-.252.497-.493 1-.739 1.5l-.248.51c.591-.085 1.088-.13 1.574-.237.155-.034.329-.194.404-.342.222-.435.396-.895.593-1.342.074-.17.16-.333.294-.608-.649.13-1.175.23-1.698.344-.071.016-.143.103-.18.174M54.305 56.862c-.474-.189-.935-.41-1.403-.61-.09-.039-.192-.048-.364-.087.1.597.177 1.096.272 1.593.013.07.102.142.173.18.537.277 1.077.546 1.618.814.127.062.264.104.414.163-.059-.45-.112-.834-.16-1.218-.049-.367-.163-.679-.55-.835"/>
        <path fill="#F1B541" d="M4.606 28.086c-.518.158-1.039.3-1.556.459-.309.096-.613.213-1.014.353.424.204.734.389 1.068.5.378.125.807.317 1.166.245.771-.155 1.511-.46 2.262-.71.064-.021.111-.098.192-.174-.415-.19-.806-.317-1.139-.532a1.086 1.086 0 0 0-.979-.141"/>
        <path fill="#047FAD" d="M66.41 34.214c-.497.254-.979.532-1.468.798-.273.149-.55.29-.934.494.381.076.647.155.917.18.486.045.966.317 1.463.069.756-.377 1.511-.758 2.261-1.146.063-.033.093-.127.15-.208-.685-.1-1.314-.2-1.948-.274a.81.81 0 0 0-.442.087"/>
        <path fill="#324285" d="M18.27 53.684c-.321.13-.647.255-.953.418-.14.074-.297.213-.34.354-.206.69-.377 1.39-.583 2.166.292-.092.553-.138.779-.256.307-.16.748-.315.847-.578.249-.66.337-1.38.496-2.108-.1 0-.181-.022-.245.004"/>
        <path fill="#F1B541" d="M27.991 58.787l-.08-.316-.914 1.587c.215.903.43 1.8.642 2.7h.104c.235-.476.49-.945.695-1.432.07-.168.064-.393.024-.578-.142-.656-.312-1.307-.47-1.961"/>
        <path fill="#4CAD4D" d="M63.575 23.85c-.39.308-.708.707-1.053 1.071-.166.174-.325.352-.437.472 1.775.4 2.661-.844 3.701-2.005-.517.068-.947.105-1.369.185-.29.056-.625.103-.842.276"/>
        <path fill="#F1B541" d="M42.222 6.656c-.113.104-.203.153-.239.227-.167.338-.33.678-.47 1.027-.083.206-.2.447-.163.645.114.61.292 1.206.453 1.805.043.163.111.318.197.558.198-.382.317-.689.502-.948.266-.37.356-.733.23-1.184-.19-.677-.33-1.369-.51-2.13"/>
        <path fill="#4CAD4D" d="M5.345 44.713c-.036.048-.085.085-.129.127l-1.11 1.063c.022.046.044.09.068.134.672-.115 1.445-.061 1.991-.387.654-.391 1.114-1.106 1.728-1.755-.452.062-.775.148-1.095.14-.609-.013-1.09.193-1.453.678"/>
        <path fill="#324285" d="M12.931 16.2c.22.492.424.857.542 1.248.12.387.421.464.725.53.578.125 1.164.211 1.801.323l-.664-1.497-2.404-.604"/>
        <path fill="#047FAD" d="M62.47 36.34c-.82.169-1.574.662-2.356 1.018l.063.105c.256.059.517.103.767.18.507.159.997.279 1.497-.05.211-.138.472-.198.71-.298.391-.168.782-.34 1.174-.51-.619-.235-1.283-.562-1.855-.445M32.028 62.2c.085.138.14.294.205.443l.686 1.562c.157-.73.29-1.348.43-2.006l-1.058-2.324c-.164.78-.765 1.496-.263 2.324M37.509 6.493l-.497-1.117a3.658 3.658 0 0 1-.107.005c-.124.578-.256 1.154-.365 1.734-.021.116.028.257.078.372.264.598.537 1.194.813 1.787.037.078.115.138.208.246.129-.484.27-.878.329-1.283a2.125 2.125 0 0 0-.074-.845c-.087-.311-.252-.601-.385-.899"/>
        <path fill="#F1B541" d="M21.556 8.854c-.527-.388-1.047-.785-1.642-1.23.067.693.12 1.24.178 1.858l1.895 1.351c.036-.037.071-.074.108-.11-.366-.575.134-1.374-.539-1.869M60.604 19.853c-.235.045-.507.167-.656.345-.36.427-.66.905-.98 1.367-.05.071-.072.163-.117.273a848.69 848.69 0 0 0 1.714-.192l1.413-1.82a4.316 4.316 0 0 0-1.374.027"/>
        <path fill="#324285" d="M15.164 63.22l1.74 1.124.275-2.602c-.532.209-.964.42-1.42.549-.496.14-.68.36-.595.93M8.03 36.68c-.583.19-1.084.638-1.613.983-.184.122-.347.275-.575.456.537 0 .975-.026 1.408.008.39.03.702-.072.985-.333.126-.114.284-.194.43-.29l1.06-.7a8.372 8.372 0 0 1-.01-.158c-.565 0-1.174-.13-1.685.035M36.973 59.795c-.064.61-.12 1.127-.176 1.667.675 1.254 1.31 2.13 1.515 2.128 0-.267-.026-.536.005-.8.072-.603.017-1.143-.42-1.636-.336-.38-.58-.844-.924-1.36"/>
        <path fill="#047FAD" d="M55.775 18.452c-.06.016-.104.113-.139.181-.21.412-.418.825-.623 1.24-.074.151-.136.308-.222.502.538-.095 1.005-.174 1.47-.264.048-.01.096-.075.125-.125.355-.608.707-1.217 1.06-1.826a6.548 6.548 0 0 0-.056-.122c-.539.136-1.079.268-1.615.414"/>
        <path fill="#324285" d="M31.64 5.706a6.626 6.626 0 0 0-.133.04c.178.73-.236 1.504.272 2.213.38.53.732 1.08 1.096 1.62L33 9.54c0-.561.161-1.188-.036-1.67-.317-.772-.87-1.446-1.325-2.163"/>
        <path fill="#4CAD4D" d="M7.993 21.644c.201.24.305.371.418.495.466.514.917 1.027 1.743.833.382-.09.79-.072 1.187-.104.113-.01.226-.023.444-.045l-1.032-1.179h-2.76z"/>
        <path fill="#047FAD" d="M13.444 49.45c-.356.614-.764 1.209-1.011 1.92.327-.079.549-.143.773-.185.176-.031.408.031.524-.063.247-.198.467-.448.637-.717.25-.393.447-.822.665-1.234-.213-.129-1.463.063-1.588.279M50.702 55.23c-.47-.159-.9-.435-1.38-.676.018.215-.007.402.055.553.163.401-.003.94.51 1.2.31.158.6.357.91.52.244.128.503.227.79.357-.055-.284-.105-.492-.135-.702-.072-.524-.107-1.036-.75-1.253M18.25 12.162c.106.553.15.968.276 1.357.067.207.267.376.427.543.072.076.194.104.294.154l1.31.648-.264-1.54-2.043-1.162"/>
        <path fill="#4CAD4D" d="M56.583 46.726c-.107-.098-.26-.197-.396-.204-.492-.025-.986-.01-1.542-.01-.065.102-.14.22-.222.352l.667.831 2.376.132c-.042-.123-.05-.25-.117-.326a11.202 11.202 0 0 0-.766-.775M7.11 43.062c.49-.037.946-.09 1.402-.102.522-.013.768-.427 1.102-.712.335-.288.652-.596.952-.872-1.655-.36-2.551.666-3.456 1.686M48.002 7.884c-.133.054-.206.063-.247.104-.254.253-.516.502-.746.778-.14.167-.313.377-.319.573-.02.664.025 1.33.05 1.995.003.096.02.192.048.425.24-.264.378-.48.571-.617.541-.383.742-.863.658-1.53-.069-.542-.015-1.1-.015-1.728"/>
        <path fill="#324285" d="M52.68 7.662c.267-.104.492-.199.72-.282.32-.117.66-.194.957-.353.173-.093.279-.312.453-.519l-1.892-1.29-.237 2.444"/>
        <path fill="#4CAD4D" d="M3.63 47.103c-.54-.025-.884.213-1.182.592l.661 1.413c.68-.757 1.3-1.45 1.963-2.192-.159-.016-.262-.05-.354-.034-.365.072-.73.24-1.089.221M28.128 8.587c-.48-.564-.984-1.11-1.48-1.66-.041.569-.135 1.21.11 1.674.339.64.932 1.145 1.474 1.776 0-.524.009-.935-.004-1.346-.005-.15-.012-.34-.1-.444M59.55 27.789c-.063.065-.107.149-.174.245.357 0 .632-.002.908 0 .43.004.822-.05 1.149-.4.413-.442.88-.834 1.305-1.231-1.396-.277-2.322.49-3.188 1.386M22.331 54.408c-.131.223-.363.458-.408.726-.107.627-.126 1.269-.173 1.906-.005.071.042.146.079.262.125-.105.203-.184.294-.244.698-.463 1.086-1.05.96-1.946-.064-.458-.165-.665-.752-.704"/>
        <path fill="#F1B541" d="M22.912 9.89l.178 1.742 1.697 1.34-.071-1.565-1.804-1.516M46.309 57.405c-.226-.137-.408-.346-.623-.506-.206-.152-.426-.282-.596-.393-.3 1.552.768 2.186 1.847 2.933-.033-.316-.085-.543-.076-.766.02-.518-.057-.969-.552-1.268M61.124 41.145c-.458.125-.915.251-1.374.373-.27.071-.542.135-.951.235.426.213.722.38 1.035.511.25.106.528.25.78.228.46-.039.913-.185 1.366-.295.288-.069.57-.156.857-.236l.038-.137c-.56-.237-1.12-.473-1.68-.705-.017-.007-.047.02-.071.026M11.096 45.503c-.31.35-.599.72-.985 1.185.553-.041.976-.04 1.383-.117.205-.038.402-.195.564-.34.171-.155.298-.357.44-.541.206-.27.41-.541.643-.852-1.062-.067-1.535.088-2.045.665M58.076 22.841c.347-.019.578-.026.808-.044.23-.018.46-.047.706-.073v.204c-.457.543-.872 1.037-1.302 1.545l-1.616.115 1.404-1.747"/>
        <g transform="translate(56 22.052)">
            <mask id="b" fill="#fff">
                <use xlink:href="#a"/>
            </mask>
            <path fill="#F1B541" d="M-.858 4.066H5.12V-.858H-.858z" mask="url(#b)"/>
        </g>
        <g>
            <path fill="#4CAD4D" d="M47.578 12.503c-.568.42-.93.903-.851 1.688.039.391.21.581.493.682.135.048.362-.083.515-.183a.488.488 0 0 0 .19-.33c.048-.57.07-1.142.098-1.712.006-.14 0-.28 0-.515-.19.16-.312.272-.445.37"/>
            <path fill="#324285" d="M51.367 15.773l1.475-.677c.19-.77.364-1.484.571-2.328l-1.568.732-.478 2.273"/>
            <path fill="#F1B541" d="M9.354 26.93c-.526.017-1.05.186-1.57.305-.254.058-.502.145-.896.261.603.303 1.097.552 1.613.81.796-.212 1.586-.42 2.476-.655-.277-.158-.46-.283-.657-.37-.317-.139-.648-.363-.966-.351"/>
            <path fill="#324285" d="M55.966 51.601c-.618-.247-1.311-.307-2.067-.463l.603 1.401c.67.184 1.467.403 2.377.651-.12-.292-.176-.5-.282-.679-.19-.323-.343-.795-.631-.91"/>
            <path fill="#4CAD4D" d="M23.959 4.22c-.06-.058-.144-.09-.328-.204.12.713.075 1.396.36 1.888.346.6.968 1.043 1.476 1.548.024.023.092.003.086.003.362-1.524-.688-2.343-1.594-3.234M45.903 63.45c-.534-.512-1.08-1.011-1.665-1.552.036.434.076.813.093 1.193.017.356.099.66.388.915.39.341.739.73 1.106 1.097.099.099.205.192.386.361-.088-.66-.158-1.203-.234-1.746-.013-.093-.016-.213-.074-.268M14.66 21.75c-.752-.089-1.51-.13-2.303-.194.341.876 1.158 1.374 2.122 1.306l.397-.584c.192-.285.081-.494-.217-.529"/>
            <path fill="#F1B541" d="M49.703 60.27a1.222 1.222 0 0 0-.322-.56c-.243-.228-.539-.399-.815-.59-.219-.154-.442-.3-.715-.486l.248 1.711 1.778 1.35c0-.178.011-.266-.002-.352-.05-.359-.081-.724-.172-1.073M9.21 47.915c-.397.507-.794 1.013-1.187 1.52-.036.049-.045.117-.085.224.153-.013.253-.015.351-.03.367-.056.74-.093 1.1-.185.187-.047.376-.167.516-.303.158-.153.26-.361.385-.545l.635-.934c-.613.06-1.12.109-1.627.164-.033.004-.063.056-.089.089"/>
            <path fill="#4CAD4D" d="M41.658 59.139c-.447 1.553.686 2.302 1.483 3.224l.123-.03c-.064-.55.02-1.18-.227-1.63-.333-.604-.922-1.066-1.379-1.565"/>
            <path fill="#324285" d="M62.74 54.369c.305-.054 1.255-1.531 1.18-1.777l-1.905-.131.725 1.908M51.506 50.62c-.23.193-.436.414-.793.759.868.31 1.618.58 2.474.887-.249-.523-.433-.964-.665-1.378-.159-.283-.813-.438-1.016-.268M60.444 32.437c-.07.05-.123.128-.208.217 1.27.264 1.89.064 3.39-1.069.055-.042.083-.124.102-.154-1.364-.5-2.299.332-3.284 1.006"/>
            <path fill="#047FAD" d="M57.638 38.35v.996l2.551-.794c-.325-.506-1.649-.63-2.55-.203"/>
            <path fill="#4CAD4D" d="M57.456 29.67c.06.218.125.465.203.753.991-.194 1.483-.98 2.295-1.483-1.02-.22-1.825.03-2.498.73"/>
            <path fill="#047FAD" d="M30.872 57.468c-.1-.018-.197-.057-.34-.1-.05.13-.163.273-.134.372.224.75.479 1.492.724 2.236l.09-.008c.15-.5.341-.993.44-1.503.084-.445-.332-.918-.78-.997"/>
            <path fill="#324285" d="M34.83 58.147l1.153 2.085.219-1.64c-.136-.242-.255-.48-.398-.706-.211-.33-.919-.137-.974.261"/>
            <path fill="#F1B541" d="M.015 31.33c.766-.29 1.45-.547 2.242-.845l-2.024-.879a683.94 683.94 0 0 1-.218 1.723"/>
            <path fill="#324285" d="M.67 42.054l.397 1.38 1.78-1.49-.035-.09c-.701.065-1.401.132-2.141.2"/>
            <path fill="#4CAD4D" d="M9.992 40.44l.085.127c.646-.233 1.477.25 1.997-.578l-.28-1.012-1.802 1.462"/>
            <path fill="#324285" d="M17.393 52.924c1.155-.401 1.363-.551 1.644-1.165-.309-.278-.627-.568-.977-.884l-.667 2.049"/>
            <path fill="#4CAD4D" d="M64.748 22.57l2.119-.379-.543-1.409-1.576 1.788M47.13 64.641c.107.64.213 1.28.332 1.984l1.395-.543-1.64-1.505a3.355 3.355 0 0 1-.088.064M22.395 3.195c-.039-.346-.105-.767-.477-.745-.419.025-.826.285-1.315.47l2.041 1.857c-.02-.238-.022-.328-.038-.416-.07-.39-.167-.774-.21-1.166M29.168 11.065c.042.251.21.635.388.677.307.073.666-.074 1.087-.143l-1.492-1.866c0 .54-.048.945.017 1.332"/>
            <path fill="#F1B541" d="M26.307 56.194l.385 2.201c.042.004.085.01.127.013.193-.338.417-.664.57-1.02.091-.214.175-.626.085-.687-.327-.22-.729-.329-1.167-.507"/>
            <path fill="#324285" d="M11.43 35.665v-1.021L9.446 35.7c.604.349 1.713.294 1.984-.035M33.813 9.374c-.042.46-.117.923-.11 1.383.003.163.175.428.317.464.291.072.613.02 1.003.02l-1.09-1.921-.12.054"/>
            <path fill="#047FAD" d="M47.484 53.928c-.193.151-.414.269-.713.46.53.345 1.05.681 1.685 1.093l-.257-1.31c-.08-.413-.38-.508-.715-.242"/>
            <path fill="#324285" d="M16.784 17.39c.162.389.326.778.52 1.15.04.074.267.143.322.1.304-.23.582-.496.956-.828l-1.766-.61c-.008.04-.056.13-.032.189"/>
            <path fill="#4CAD4D" d="M40.064 57.358c-.117-.097-.369-.078-.543-.04-.08.017-.194.225-.17.314.058.23.154.461.291.653.277.39.59.756.89 1.131l.107-.058c0-.253-.034-.512.007-.757.095-.559-.207-.93-.582-1.243"/>
            <path fill="#F1B541" d="M39.188 2.111l.696-1.794-1.446-.144.75 1.938"/>
            <path fill="#324285" d="M58.006 34.04v.638c.92.115 1.468-.67 2.247-.889-.437-.474-1.797-.303-2.247.25"/>
            <path fill="#F1B541" d="M43.07 10.96l-.874 1.501 1.29.53-.305-1.996-.11-.035"/>
            <path fill="#324285" d="M50.97 17.223c-.109.473.347 1.15.808 1.32l.591-1.848-.088-.091c-.458.215-.916.433-1.312.62"/>
            <path fill="#047FAD" d="M54.417 22.166c.1.157.204.311.354.54l.919-1.482c-.614.131-1.17.028-1.604.42l.33.522"/>
            <path fill="#F1B541" d="M57.66 42.3c-.28-.08-.697-.208-.85-.076-.254.215-.34.622-.526 1.004.5-.058.858-.09 1.215-.143.351-.053.7-.128 1.123-.207-.14-.105-.218-.18-.309-.23-.213-.125-.42-.284-.653-.348"/>
            <path fill="#047FAD" d="M38.582 9.597c-.108.517-.227 1.032-.313 1.553-.017.098.072.287.155.317.312.113.642.178 1.084.292L38.754 9.6l-.172-.003"/>
            <path fill="#F1B541" d="M11.197 26.617l1.308.751.448-1.189c-.636.107-1.135.186-1.63.282-.057.01-.096.116-.126.156M30.034 68.891l1.285.124-.624-1.709c-.244.584-.433 1.041-.661 1.585"/>
            <path fill="#047FAD" d="M9.724 30.985l1.736.534.38-1.333-2.093.702-.023.097"/>
            <path fill="#324285" d="M26.306.996l1.347 1.597.096-.043L27.52.672l-1.215.324M42.24 68.314c.36-.109.662-.2 1.023-.312l-1.195-1.35.173 1.662"/>
            <path fill="#047FAD" d="M14.142 48.228l1.553-.314-.761-.987-.792 1.301"/>
            <path fill="#324285" d="M66.88 27.524c.414 0 .726.02 1.033-.008.153-.014.421-.111.425-.18.013-.268-.06-.54-.109-.866l-1.349 1.054"/>
            <path fill="#F1B541" d="M43.099 56.225c.444.384.774.67 1.19 1.028l-.175-1.508-1.015.48M67.665 39.014c.372.146.724.288 1.125.448l.246-1.065-1.371.489v.127z"/>
            <path fill="#047FAD" d="M21.426 14.053l.22 1.175.88-.562-.838-.57a12.036 12.036 0 0 0-.262-.043"/>
            <path fill="#4CAD4D" d="M1.553 24.067l1.133-.275-.852-.81-.281 1.085"/>
            <path fill="#047FAD" d="M.178 36.137c-.054-.005-.166.076-.168.122-.016.282-.008.566-.008.956l1.428-.85c-.043-.048-.057-.081-.075-.083-.39-.053-.783-.108-1.177-.145"/>
            <path fill="#F1B541" d="M12.422 43.962l.077.113.904-.162-.276-.71-.705.759"/>
            <g transform="translate(32 -.948)">
                <mask id="d" fill="#fff">
                    <use xlink:href="#c"/>
                </mask>
                <path fill="#047FAD" d="M1.29 2.19l.085-.059V.947l-.829.1.744 1.143" mask="url(#d)"/>
            </g>
            <path fill="#F1B541" d="M56.283 25.681l.273.678.8-.896c-.28.02-.448.013-.606.048-.16.037-.312.113-.467.17M25.638 12.291l.089.835.542-.315-.493-.563-.138.043"/>
            <path fill="#4CAD4D" d="M45.892 2.503c.158-.184.265-.306.426-.49-.244-.088-.42-.15-.713-.253l.287.743M23.562 67.387l.557.166-.071-.708-.486.542"/>
            <path fill="#047FAD" d="M68.39 33.043l.011.073h.77a50.527 50.527 0 0 0-.178-.398l-.604.325"/>
            <g transform="translate(28 56.052)">
                <mask id="f" fill="#fff">
                    <use xlink:href="#e"/>
                </mask>
                <path fill="#047FAD" d="M4.707 10.857c-.191-.407-.372-.82-.557-1.23-.175-.387-.36-.771-.521-1.164-.178-.432-.334-.873-.501-1.31-.264-.692-.538-1.383-.791-2.08-.184-.507-.348-1.022-.512-1.535-.195-.61-.408-1.215-.56-1.835C1.144 1.207.589.779.108.906c.913 4.12 2.3 8.086 3.942 11.96l1.596.135c-.069-.22-.104-.381-.171-.528-.25-.541-.515-1.075-.768-1.616" mask="url(#f)"/>
            </g>
            <path fill="#047FAD" d="M8.013 31.744c-.731.15-1.417.525-2.122.806l.01.174c.514.086 1.06.326 1.534.224.709-.153 1.367-.545 2.047-.836-.5-.207-1.02-.46-1.47-.368"/>
            <g transform="translate(36 68.052)">
                <mask id="h" fill="#fff">
                    <use xlink:href="#g"/>
                </mask>
                <path fill="#047FAD" d="M.495.863l.582.104L.57.12C.54.408.52.598.495.863" mask="url(#h)"/>
            </g>
            <path fill="#FFF" d="M87.082 19.805c0 .109-.047.172-.141.204l-.675.219-.767.266c-.831.267-1.364.361-2.304.361-2.992 0-4.795-2.178-4.795-5.642 0-3.463 1.802-5.641 4.794-5.641.879 0 1.474.109 2.305.376l.72.251c.11.047.157.125.11.219l-.438 1.176c-.047.109-.126.14-.22.109l-.69-.235c-.61-.204-1.08-.282-1.786-.282-1.88 0-2.992 1.504-2.992 4.027s1.111 4.012 2.992 4.012c.658 0 1.176-.063 1.74-.251l.439-.141v-2.366h-1.896c-.126 0-.188-.079-.157-.188l.344-1.254c.031-.094.094-.141.204-.141h3.04c.11 0 .172.063.172.172v4.749zM91.046 18.849c0 .267.11.423.313.423h.11c.11-.016.172-.016.22.094l.47 1.113c.047.109.015.188-.079.235a1.905 1.905 0 0 1-.72.141c-1.286 0-2.054-.736-2.054-2.006v-9.23c0-.11.063-.172.173-.172h1.395c.11 0 .172.062.172.172v9.23zM95.026 16.874c0 1.504.706 2.398 1.896 2.398 1.16 0 1.881-.894 1.881-2.398 0-1.489-.72-2.382-1.88-2.382-1.19 0-1.897.893-1.897 2.382m5.5 0c0 2.445-1.378 3.98-3.604 3.98-2.24 0-3.62-1.535-3.62-3.98 0-2.413 1.38-3.949 3.62-3.949 2.226 0 3.604 1.536 3.604 3.95M104.602 19.006c.344.157.813.267 1.284.267 1.192 0 1.897-.894 1.897-2.398 0-1.49-.69-2.382-1.817-2.382-1.255 0-1.834 1.003-1.834 2.335v1.959l.47.219zm-.455-7.1c0 .753-.047 1.192-.25 1.756-.079.219.061.329.25.157.485-.564 1.16-.893 2.069-.893 2.053 0 3.29 1.52 3.29 3.949 0 2.46-1.362 3.98-3.62 3.98a4.872 4.872 0 0 1-1.959-.391l-1.379-.565c-.093-.047-.14-.11-.14-.204V9.619c0-.11.063-.172.172-.172h1.395c.109 0 .172.062.172.172v2.288zM113.784 17.439c-.768 0-1.128.36-1.128.893 0 .61.423.987 1.175.987 1.238 0 1.912-.611 1.912-1.771v-.11h-1.959zm-1.44-4.278a5.834 5.834 0 0 1 1.707-.235c2.116 0 3.417 1.096 3.417 2.992v4.592c0 .11-.064.173-.173.173h-.784c-.11 0-.172-.047-.204-.141l-.125-.486c-.094-.22-.188-.22-.392-.032-.485.533-1.19.83-2.147.83-1.74 0-2.71-.892-2.71-2.365 0-1.473 1.002-2.414 2.851-2.414h1.96v-.094c0-.956-.612-1.473-1.772-1.473-.454 0-.846.047-1.222.157l-.564.172c-.11.032-.188-.015-.219-.125l-.345-1.16c-.03-.11.016-.188.125-.22l.596-.171zM121.354 18.849c0 .267.11.423.312.423h.11c.11-.016.173-.016.221.094l.468 1.113c.048.109.016.188-.078.235a1.901 1.901 0 0 1-.72.141c-1.286 0-2.053-.736-2.053-2.006v-9.23c0-.11.062-.172.172-.172h1.395c.11 0 .173.062.173.172v9.23zM80.578 29.048h1.692c1.755 0 2.68-.737 2.68-2.053 0-1.19-.736-1.896-1.975-1.896h-2.397v3.95zm2.397-5.532c2.382 0 3.777 1.301 3.777 3.48 0 2.318-1.583 3.62-4.482 3.62h-1.692v3.682c0 .11-.063.172-.172.172h-1.427c-.109 0-.172-.063-.172-.172V23.69c0-.11.063-.173.172-.173h3.996zM90.921 31.226c-.768 0-1.128.36-1.128.893 0 .611.422.987 1.175.987 1.238 0 1.911-.61 1.911-1.77v-.11h-1.958zm-1.442-4.278a5.839 5.839 0 0 1 1.708-.235c2.116 0 3.417 1.096 3.417 2.993v4.591c0 .11-.063.173-.173.173h-.783c-.11 0-.173-.047-.204-.14l-.126-.487c-.094-.22-.188-.22-.39-.032-.487.533-1.192.831-2.148.831-1.74 0-2.71-.893-2.71-2.366s1.002-2.414 2.851-2.414h1.958v-.094c0-.956-.61-1.473-1.77-1.473-.455 0-.846.047-1.223.157l-.564.172c-.109.032-.188-.015-.219-.125l-.345-1.16c-.03-.109.016-.188.125-.219l.596-.172zM101.122 28.108c0 .11-.062.172-.172.172-1.708.078-2.46 1.27-2.46 4.153v1.865c0 .11-.063.172-.172.172h-1.395c-.11 0-.173-.062-.173-.172v-7.255c0-.11.063-.173.173-.173h.783c.11 0 .173.047.204.14l.251.894c.094.173.172.204.314.047.626-.815 1.332-1.206 2.475-1.238.11 0 .172.063.172.173v1.222zM107.124 26.87c.11 0 .173.062.173.172v1.207c0 .109-.063.172-.173.172h-1.755v3.808c0 .533.235.83.612.83.14 0 .282-.015.407-.062.11-.047.188-.031.235.079l.5 1.065c.049.094.018.172-.077.235-.281.157-.69.266-1.065.266-1.49 0-2.351-.893-2.351-2.413V28.42h-.768c-.11 0-.173-.063-.173-.172v-1.207c0-.11.063-.172.173-.172h.768v-1.802c0-.094.047-.157.14-.188l1.396-.47c.125-.032.203.015.203.14v2.32h1.755zM110.478 27.653c.095.188.188.172.36.016.612-.69 1.395-.956 2.162-.956 1.788 0 2.87 1.112 2.87 2.961v4.624c0 .11-.064.172-.174.172h-1.395c-.109 0-.172-.063-.172-.172v-4.436c0-.986-.517-1.582-1.363-1.582-1.16 0-1.834.846-1.834 2.366v3.652c0 .11-.062.172-.172.172h-1.394c-.11 0-.173-.063-.173-.172v-7.256c0-.11.063-.172.173-.172h.783c.11 0 .172.047.187.156l.142.627zM121.762 29.988c.548-.094.847-.345.847-.752 0-.627-.487-.956-1.332-.956-1.036 0-1.741.643-1.866 2.084l2.35-.376zm1.206 4.451a6.571 6.571 0 0 1-1.598.203c-2.367 0-3.7-1.535-3.7-3.965 0-2.444 1.349-3.964 3.638-3.964 1.88 0 3.023.94 3.023 2.491 0 1.207-.736 1.897-2.302 2.132l-2.461.376c.172.83.798 1.348 1.787 1.348.438 0 .908-.048 1.237-.157l.69-.172c.11-.032.188.015.219.125l.314 1.175c.03.11-.016.188-.126.22l-.721.188zM130.583 28.108c0 .11-.062.172-.172.172-1.708.078-2.46 1.27-2.46 4.153v1.865c0 .11-.063.172-.173.172h-1.394c-.11 0-.172-.062-.172-.172v-7.255c0-.11.062-.173.172-.173h.783c.11 0 .173.047.204.14l.25.894c.095.173.173.204.315.047.626-.815 1.332-1.206 2.475-1.238.11 0 .172.063.172.173v1.222zM134.204 31.1c-1.301-.328-1.912-1.002-1.912-2.13 0-1.411 1.051-2.257 2.867-2.257.706 0 1.427.11 1.943.25l.69.173c.11.03.157.11.126.219l-.329 1.176c-.031.11-.11.156-.219.125l-.69-.188c-.423-.125-1.05-.188-1.521-.188-.721 0-1.142.267-1.142.69 0 .36.218.58.705.72l1.566.408c1.363.345 1.975 1.05 1.975 2.178 0 1.473-1.098 2.367-2.947 2.367-.815 0-1.63-.11-2.397-.33l-.611-.172c-.11-.031-.157-.11-.125-.22l.36-1.174c.031-.095.109-.142.204-.11l.563.156c.596.173 1.427.267 2.006.267.769 0 1.207-.298 1.207-.784 0-.376-.219-.611-.737-.768l-1.582-.407zM141.82 25.695c0 .752-.079 1.253-.25 1.786-.063.172.03.282.22.14.531-.578 1.205-.907 2.098-.907 1.786 0 2.87 1.112 2.87 2.96v4.624c0 .11-.064.172-.174.172h-1.395c-.11 0-.173-.062-.173-.172v-4.435c0-1.003-.516-1.583-1.363-1.583-1.27 0-1.817 1.003-1.833 2.367v3.65c0 .11-.063.173-.173.173h-1.394c-.11 0-.172-.062-.172-.172V23.407c0-.11.062-.172.172-.172h1.394c.11 0 .173.062.173.172v2.288zM151.143 24.159c0 .674-.375 1.066-1.032 1.066-.659 0-1.051-.393-1.051-1.067 0-.658.392-1.05 1.05-1.05s1.033.392 1.033 1.05zm.017 10.139c0 .11-.064.172-.172.172h-1.395c-.11 0-.172-.063-.172-.172V28.42h-.768c-.111 0-.173-.063-.173-.172v-1.206c0-.11.062-.174.173-.174h2.335c.108 0 .172.063.172.174v7.255zM155.61 32.793c.377.188.814.267 1.285.267 1.207 0 1.897-.894 1.897-2.398 0-1.489-.69-2.382-1.85-2.382-1.176 0-1.802.971-1.802 2.335v1.96l.47.218zm-.877-5.125c.063.173.188.157.297.016.611-.689 1.348-.97 2.194-.97 2.053 0 3.291 1.52 3.291 3.948 0 2.46-1.316 3.98-3.51 3.98-.565 0-.97-.094-1.426-.298l-.423-.188v3.511c0 .11-.064.172-.173.172h-1.394c-.11 0-.172-.062-.172-.172V27.042c0-.11.062-.172.172-.172h.783c.11 0 .173.047.188.14l.173.658zM79.14 40.191c0-1.34.74-2.15 1.967-2.15.257 0 .484.041.755.156l.228.085c.07.028.1.085.07.157l-.212.57c-.03.071-.086.1-.157.071l-.185-.072a1.209 1.209 0 0 0-.5-.099c-.654 0-1.04.484-1.04 1.282v1.24h1.582c.086 0 .129.043.129.13v.583c0 .086-.043.128-.13.128h-1.581v5.857c0 .085-.042.128-.128.128h-.67c-.085 0-.128-.043-.128-.128v-5.857h-.655c-.086 0-.13-.042-.13-.128v-.584c0-.086.044-.129.13-.129h.655v-1.24zM84.384 44.838c0 1.695.812 2.708 2.18 2.708s2.195-1.013 2.195-2.708c0-1.682-.827-2.693-2.195-2.693-1.368 0-2.18 1.01-2.18 2.693m5.287 0c0 2.195-1.183 3.563-3.107 3.563-1.924 0-3.107-1.368-3.107-3.563 0-2.181 1.183-3.55 3.107-3.55 1.924 0 3.107 1.369 3.107 3.55M95.527 42.015c0 .087-.043.13-.128.13-1.525.07-2.394 1.352-2.394 3.761v2.224c0 .084-.043.127-.129.127h-.67c-.085 0-.128-.042-.128-.127v-6.57c0-.086.043-.129.128-.129h.442c.086 0 .13.044.143.13l.1 1.068c.028.114.114.142.185.029.541-.855 1.24-1.327 2.323-1.37.085 0 .128.044.128.13v.597zM103.635 43.342c-1.567-.584-2.123-1.354-2.123-2.551 0-1.568 1.21-2.494 3.093-2.494.74 0 1.426.128 2.152.356l.713.228c.085.028.113.086.085.17l-.2.586c-.028.07-.085.1-.157.07l-.683-.213a6.078 6.078 0 0 0-1.91-.3c-1.283 0-2.138.613-2.138 1.597 0 .655.299 1.268 1.539 1.724l1.967.74c1.34.5 2.152 1.17 2.152 2.467 0 1.696-1.44 2.679-3.435 2.679a7.31 7.31 0 0 1-2.68-.485l-.57-.213c-.071-.03-.1-.086-.071-.157l.214-.585c.029-.085.086-.113.157-.085l.57.214c.684.242 1.383.428 2.38.428 1.34 0 2.466-.642 2.466-1.796 0-.841-.727-1.325-1.54-1.64l-1.981-.74zM115.59 47.26c-.042-.127-.127-.127-.212-.014-.542.77-1.297 1.155-2.281 1.155-1.568 0-2.522-1.055-2.522-2.764V41.56c0-.086.042-.13.127-.13h.67c.086 0 .129.044.129.13v4.004c0 1.24.627 1.98 1.682 1.98 1.41 0 2.237-1.054 2.237-2.863V41.56c0-.086.043-.13.128-.13h.67c.086 0 .129.044.129.13v6.569c0 .085-.043.128-.13.128h-.44c-.086 0-.13-.043-.13-.128l-.056-.87zM120.464 44.909c-1.055-.271-1.54-.827-1.54-1.767 0-1.154.899-1.853 2.438-1.853.627 0 1.24.086 1.668.214l.555.171c.086.029.115.086.086.172l-.156.554c-.03.086-.086.114-.172.086l-.541-.156a5.358 5.358 0 0 0-1.426-.186c-.97 0-1.524.399-1.524.998 0 .498.27.812.912.997l1.653.47c1.11.285 1.596.885 1.596 1.811 0 1.24-.955 1.98-2.594 1.98-.84 0-1.567-.113-2.152-.327l-.385-.128c-.085-.029-.113-.086-.085-.172l.2-.57c.028-.07.085-.1.156-.07l.372.128c.484.17 1.139.285 1.894.285 1.055 0 1.668-.428 1.668-1.126 0-.528-.3-.841-.955-1.041l-1.668-.47zM129.2 41.431c.085 0 .128.044.128.13v.584c0 .085-.043.127-.128.127h-1.582v4.319c0 .611.27.954.755.954.114 0 .243-.028.37-.07.072-.03.13 0 .172.07l.242.528c.028.072.014.142-.057.17-.2.1-.47.157-.727.157-1.055 0-1.682-.655-1.682-1.794v-4.334h-.655c-.086 0-.129-.041-.129-.127v-.585c0-.086.043-.129.13-.129h.654v-1.71c0-.07.03-.127.101-.142l.683-.227c.086-.03.143.014.143.113v1.966h1.582zM133.531 45.052c-1.083 0-1.58.499-1.58 1.239 0 .799.511 1.27 1.423 1.27 1.47 0 2.31-.842 2.31-2.324v-.185h-2.153zm-1.269-3.55a5.192 5.192 0 0 1 1.526-.213c1.738 0 2.822 1.04 2.822 2.766v4.075c0 .085-.043.128-.129.128h-.44c-.087 0-.13-.043-.144-.128l-.043-.641c-.043-.186-.142-.17-.285-.014-.484.613-1.21.926-2.266.926-1.439 0-2.28-.784-2.28-2.052 0-1.24.87-2.081 2.508-2.095h2.152v-.185c0-1.211-.684-1.911-1.909-1.911-.5 0-.94.057-1.297.172l-.5.143c-.085.027-.142 0-.17-.086l-.157-.557c-.028-.085 0-.141.085-.17l.527-.157zM140.514 38.738c0 .398-.228.627-.612.627-.385 0-.627-.229-.627-.627s.242-.627.627-.627c.384 0 .612.23.612.627zm0 9.392c0 .085-.042.128-.128.128h-.67c-.086 0-.13-.043-.13-.128v-5.858h-.653c-.086 0-.13-.042-.13-.128v-.584c0-.086.044-.129.13-.129h1.453c.086 0 .128.043.128.13v6.57zM144.062 42.43c.042.127.128.127.214.014.541-.77 1.297-1.156 2.28-1.156 1.568 0 2.523 1.056 2.523 2.767v4.075c0 .084-.043.127-.129.127h-.67c-.085 0-.128-.042-.128-.127v-4.006c0-1.24-.627-1.98-1.682-1.98-1.41 0-2.237 1.056-2.237 2.864v3.121c0 .086-.043.129-.129.129h-.67c-.085 0-.127-.044-.127-.129V41.56c0-.086.042-.129.127-.129h.442c.085 0 .128.044.128.13l.058.868zM153.837 45.052c-1.082 0-1.581.499-1.581 1.239 0 .799.513 1.27 1.425 1.27 1.468 0 2.308-.842 2.308-2.324v-.185h-2.152zm-1.268-3.55a5.182 5.182 0 0 1 1.526-.213c1.738 0 2.82 1.04 2.82 2.766v4.075c0 .085-.042.128-.127.128h-.442c-.085 0-.128-.043-.142-.128l-.043-.641c-.043-.186-.142-.17-.285-.014-.484.613-1.212.926-2.267.926-1.44 0-2.28-.784-2.28-2.052 0-1.24.869-2.081 2.508-2.095h2.152v-.185c0-1.211-.683-1.911-1.91-1.911-.498 0-.94.057-1.296.172l-.5.143c-.085.027-.141 0-.17-.086l-.157-.557c-.028-.085 0-.141.086-.17l.527-.157zM161.077 47.246c.355.157.87.3 1.453.3 1.368 0 2.181-1.013 2.181-2.708 0-1.682-.77-2.694-2.067-2.694-1.439 0-2.15 1.24-2.15 2.85v1.953l.583.299zm-.57-6.312c0 .583-.03.997-.115 1.439-.042.156.072.213.171.07.471-.713 1.198-1.154 2.166-1.154 1.825 0 2.91 1.353 2.91 3.549 0 2.209-1.17 3.562-3.109 3.562-.698 0-1.31-.142-1.824-.37l-1.025-.442c-.073-.028-.1-.071-.1-.143V38.31c0-.085.042-.128.127-.128h.67c.086 0 .13.043.13.128v2.624zM168.956 47.033c0 .312.129.513.371.513.043 0 .086 0 .128-.015.071-.028.128 0 .157.071l.242.556c.029.072 0 .143-.071.172-.142.043-.3.07-.456.07-.812 0-1.297-.498-1.297-1.367V38.31c0-.086.043-.129.128-.129h.67c.085 0 .128.043.128.129v8.723zM175.27 44.41c.755-.128 1.14-.456 1.14-.998 0-.797-.613-1.268-1.667-1.268-1.327 0-2.124.898-2.166 2.722l2.693-.456zm1.04 3.777c-.499.157-.997.213-1.539.213-1.967 0-3.136-1.367-3.136-3.562 0-2.181 1.184-3.549 3.121-3.549 1.612 0 2.58.784 2.58 2.109 0 .998-.627 1.582-1.91 1.796l-2.779.456c.185 1.198.955 1.896 2.124 1.896.484 0 .927-.058 1.325-.186l.428-.128c.086-.014.142.014.171.1l.171.57c.013.085-.014.143-.1.156l-.456.129zM79.795 61.191h2.337c1.996 0 3.164-1.512 3.164-4.047 0-2.552-1.168-4.049-3.164-4.049h-2.337v8.096zm2.337-8.95c2.565 0 4.12 1.867 4.12 4.903 0 3.022-1.569 4.902-4.12 4.902h-3.149c-.086 0-.129-.043-.129-.128V52.37c0-.085.043-.128.13-.128h3.148zM91.979 58.2c.755-.13 1.14-.458 1.14-.999 0-.799-.613-1.27-1.667-1.27-1.326 0-2.124.9-2.166 2.723l2.693-.455zm1.04 3.774c-.498.16-.997.215-1.54.215-1.965 0-3.134-1.369-3.134-3.562 0-2.182 1.183-3.549 3.12-3.549 1.612 0 2.58.783 2.58 2.11 0 .995-.627 1.58-1.91 1.794l-2.778.455c.185 1.198.955 1.897 2.123 1.897.485 0 .927-.057 1.326-.186l.427-.129c.086-.013.143.016.17.1l.172.57c.014.086-.014.143-.1.158l-.455.127zM100.358 59.496a22.915 22.915 0 0 0-.855 2.436c-.014.085-.07.115-.143.115h-.769c-.07 0-.129-.03-.143-.115a17.876 17.876 0 0 0-.855-2.436l-1.852-4.12c-.043-.1 0-.155.1-.155h.712c.071 0 .114.027.142.099l1.611 3.576c.271.643.47 1.284.57 1.71.043.128.157.128.2 0 .085-.426.3-1.083.57-1.71l1.61-3.576c.028-.072.071-.1.142-.1h.713c.1 0 .143.057.1.157l-1.853 4.119zM107.555 58.2c.755-.13 1.14-.458 1.14-.999 0-.799-.613-1.27-1.667-1.27-1.326 0-2.124.9-2.166 2.723l2.693-.455zm1.04 3.774c-.498.16-.997.215-1.54.215-1.966 0-3.135-1.369-3.135-3.562 0-2.182 1.184-3.549 3.122-3.549 1.61 0 2.579.783 2.579 2.11 0 .995-.627 1.58-1.91 1.794l-2.778.455c.184 1.198.955 1.897 2.123 1.897.484 0 .927-.057 1.326-.186l.428-.129c.085-.013.142.016.17.1l.172.57c.013.086-.015.143-.1.158l-.457.127zM112.94 60.82c0 .314.13.514.371.514.043 0 .086 0 .128-.014.071-.029.128 0 .157.07l.242.557c.03.07 0 .143-.07.17-.143.043-.3.072-.457.072-.812 0-1.297-.5-1.297-1.369v-8.722c0-.085.043-.128.128-.128h.67c.085 0 .128.043.128.128v8.722zM116.546 58.627c0 1.695.812 2.707 2.18 2.707 1.369 0 2.195-1.012 2.195-2.707 0-1.684-.826-2.695-2.194-2.695-1.37 0-2.181 1.01-2.181 2.695m5.287 0c0 2.193-1.182 3.563-3.106 3.563s-3.107-1.37-3.107-3.563c0-2.182 1.183-3.55 3.107-3.55 1.924 0 3.106 1.368 3.106 3.55M125.737 61.035c.428.199.87.299 1.453.299 1.37 0 2.182-1.012 2.182-2.707 0-1.668-.77-2.696-2.08-2.696-1.412 0-2.139 1.227-2.139 2.852v1.967l.584.285zm-.727-4.832c.03.129.114.143.2.014.527-.741 1.24-1.139 2.18-1.139 1.825 0 2.908 1.353 2.908 3.549 0 2.209-1.14 3.562-3.079 3.562-.613 0-1.083-.086-1.625-.342l-.427-.201v3.28c0 .086-.043.127-.128.127h-.67c-.085 0-.128-.041-.128-.127v-9.578c0-.086.043-.127.128-.127h.442c.085 0 .128.041.143.127l.056.855zM133.446 56.19c.043.142.13.142.23.026.54-.754 1.166-1.138 2.151-1.138 1.012 0 1.64.584 1.952 1.281.1.158.214.13.313.016.6-.928 1.34-1.297 2.295-1.297 1.467 0 2.337 1.054 2.337 2.763v4.077c0 .085-.043.128-.128.128h-.67c-.085 0-.128-.043-.128-.128v-4.004c0-1.24-.528-1.983-1.497-1.983-1.496 0-2.123 1.197-2.123 2.865v3.122c0 .085-.043.128-.128.128h-.67c-.086 0-.128-.043-.128-.128v-4.02c0-1.225-.556-1.967-1.51-1.967-1.497 0-2.124 1.197-2.124 2.865v3.122c0 .085-.043.128-.129.128h-.67c-.086 0-.128-.043-.128-.128v-6.57c0-.087.042-.128.128-.128h.441c.086 0 .13.041.143.127l.043.842zM148.68 58.2c.755-.13 1.14-.458 1.14-.999 0-.799-.613-1.27-1.667-1.27-1.326 0-2.124.9-2.166 2.723l2.693-.455zm1.04 3.774c-.498.16-.997.215-1.54.215-1.966 0-3.134-1.369-3.134-3.562 0-2.182 1.183-3.549 3.12-3.549 1.612 0 2.58.783 2.58 2.11 0 .995-.627 1.58-1.91 1.794l-2.778.455c.185 1.198.955 1.897 2.123 1.897.484 0 .927-.057 1.326-.186l.428-.129c.085-.013.142.016.17.1l.172.57c.013.086-.015.143-.1.158l-.457.127zM153.895 56.217c.043.129.128.129.213.016.542-.77 1.297-1.155 2.281-1.155 1.568 0 2.523 1.055 2.523 2.764v4.076c0 .086-.043.129-.128.129h-.67c-.086 0-.129-.043-.129-.13v-4.003c0-1.24-.627-1.982-1.682-1.982-1.41 0-2.237 1.055-2.237 2.865v3.12c0 .087-.043.13-.128.13h-.67c-.086 0-.129-.043-.129-.13v-6.57c0-.085.043-.126.13-.126h.44c.086 0 .13.04.13.127l.056.869zM164.454 55.22c.086 0 .129.041.129.127v.584c0 .087-.043.13-.129.13h-1.582v4.318c0 .613.271.955.756.955.114 0 .242-.03.371-.073.07-.027.128 0 .171.072l.242.529c.028.07.015.142-.058.17a1.676 1.676 0 0 1-.726.158c-1.055 0-1.682-.657-1.682-1.797V56.06h-.655c-.086 0-.128-.043-.128-.129v-.584c0-.086.042-.127.128-.127h.655v-1.71c0-.072.029-.13.1-.143l.684-.228c.085-.029.142.014.142.113v1.968h1.582zM171.665 61.191h2.338c1.994 0 3.163-1.512 3.163-4.047 0-2.552-1.169-4.049-3.163-4.049h-2.338v8.096zm2.338-8.95c2.564 0 4.118 1.867 4.118 4.903 0 3.022-1.567 4.902-4.118 4.902h-3.15c-.086 0-.128-.043-.128-.128V52.37c0-.085.042-.128.128-.128h3.15zM182.651 58.84c-1.083 0-1.582.498-1.582 1.24 0 .797.514 1.268 1.426 1.268 1.468 0 2.308-.84 2.308-2.322v-.186h-2.152zm-1.268-3.55a5.144 5.144 0 0 1 1.525-.212c1.74 0 2.821 1.039 2.821 2.764v4.076c0 .086-.043.129-.128.129h-.442c-.085 0-.127-.043-.142-.13l-.043-.64c-.043-.185-.142-.171-.285-.015-.484.613-1.212.928-2.267.928-1.438 0-2.279-.786-2.279-2.053 0-1.24.87-2.08 2.508-2.096h2.152v-.185c0-1.211-.683-1.91-1.91-1.91-.498 0-.94.058-1.297.17l-.498.144c-.086.029-.142 0-.172-.086l-.156-.555c-.029-.086 0-.142.086-.172l.527-.156zM191.216 55.22c.086 0 .129.041.129.127v.584c0 .087-.043.13-.13.13h-1.581v4.318c0 .613.27.955.756.955.113 0 .242-.03.37-.073.07-.027.128 0 .17.072l.243.529c.029.07.015.142-.057.17a1.68 1.68 0 0 1-.726.158c-1.055 0-1.682-.657-1.682-1.797V56.06h-.656c-.085 0-.128-.043-.128-.129v-.584c0-.086.043-.127.128-.127h.656v-1.71c0-.072.029-.13.1-.143l.683-.228c.086-.029.143.014.143.113v1.968h1.582zM195.548 58.84c-1.084 0-1.582.498-1.582 1.24 0 .797.513 1.268 1.425 1.268 1.468 0 2.309-.84 2.309-2.322v-.186h-2.152zm-1.27-3.55a5.154 5.154 0 0 1 1.526-.212c1.739 0 2.822 1.039 2.822 2.764v4.076c0 .086-.043.129-.13.129h-.44c-.086 0-.128-.043-.143-.13l-.043-.64c-.043-.185-.142-.171-.285-.015-.484.613-1.211.928-2.266.928-1.44 0-2.28-.786-2.28-2.053 0-1.24.87-2.08 2.509-2.096h2.152v-.185c0-1.211-.684-1.91-1.91-1.91-.5 0-.941.058-1.297.17l-.5.144c-.084.029-.141 0-.17-.086l-.156-.555c-.03-.086 0-.142.085-.172l.527-.156z"/>
        </g>
    </g>
</svg>
