<svg aria-hidden="true" style="position: absolute; width: 0; height: 0; overflow: hidden;" version="1.1" xmlns="http://www.w3.org/2000/svg" xmlns:xlink="http://www.w3.org/1999/xlink">
<defs>
<symbol id="icon-settings" viewBox="0 0 32 32">
<title>icon-settings</title>
<path fill="#f3b641" opacity="0.2" style="fill: var(--color1, #f3b641)" d="M32 16c0 8.837-7.163 16-16 16s-16-7.163-16-16c0-8.837 7.163-16 16-16s16 7.163 16 16z"></path>
<path fill="#f3b641" stroke="#f3b641" stroke-width="0.8" stroke-miterlimit="4" stroke-linecap="square" stroke-linejoin="miter" style="stroke: var(--color1, #f3b641)" style="fill: var(--color1, #f3b641)" d="M20.873 13.239l-2.352-2.33 1.954-1.936c-0.35-0.109-0.752-0.172-1.169-0.172-0.090 0-0.179 0.003-0.267 0.009l0.012-0.001c-1.855 0.164-3.346 1.805-3.312 3.643 0 0.361 0.066 0.722 0.166 1.050l-6.359 5.58c-0.96 0.82-0.994 2.298-0.099 3.184s2.352 0.853 3.213-0.098l5.63-6.302c0.563 0.164 1.192 0.23 1.855 0.098 1.325-0.262 2.418-1.247 2.782-2.527 0.166-0.788 0.099-1.51-0.1-2.133l-1.954 1.936z"></path>
<path fill="none" stroke="#f3b641" stroke-width="0.8" stroke-miterlimit="4" stroke-linecap="square" stroke-linejoin="miter" style="stroke: var(--color1, #f3b641)" d="M9.016 11.237l1.855-1.871 1.888 1.871-0.464 1.378-1.424 0.46z"></path>
</symbol>
<symbol id="icon-community" viewBox="0 0 28 28">
<title>icon-community</title>
<path fill="#f3b641" opacity="0.2" style="fill: var(--color1, #f3b641)" d="M28 14c0 7.732-6.268 14-14 14s-14-6.268-14-14c0-7.732 6.268-14 14-14s14 6.268 14 14z"></path>
<path fill="#f3b641" stroke="#f3b641" stroke-width="0.7" stroke-miterlimit="4" stroke-linecap="butt" stroke-linejoin="miter" style="stroke: var(--color1, #f3b641)" style="fill: var(--color1, #f3b641)" d="M12.050 8.45c-0-0.007-0-0.016-0-0.025 0-0.994 0.806-1.8 1.8-1.8s1.8 0.806 1.8 1.8c0 0.009-0 0.018-0 0.026l0-0.001c-0.014 0.983-0.815 1.775-1.8 1.775s-1.786-0.792-1.8-1.774l-0-0.001z"></path>
<path fill="none" stroke="#f3b641" stroke-width="0.7" stroke-miterlimit="4" stroke-linecap="round" stroke-linejoin="round" style="stroke: var(--color1, #f3b641)" d="M9.050 18.050v-4.8c0-0.678 0.235-1.297 0.616-1.8h-1.815c-0 0-0 0-0 0-0.663 0-1.2 0.537-1.2 1.2 0 0 0 0 0 0v-0 3.6h1.2v3c0 0.331 0.269 0.6 0.6 0.6h1.2c0.331 0 0.6-0.269 0.6-0.6v-1.2h-1.2z"></path>
<path fill="#f3b641" stroke="#f3b641" stroke-width="0.7" stroke-miterlimit="4" stroke-linecap="round" stroke-linejoin="round" style="stroke: var(--color1, #f3b641)" style="fill: var(--color1, #f3b641)" d="M12.65 21.050c-0.331-0-0.6-0.269-0.6-0.6v-3.6h-1.8v-3.6c0-0.994 0.806-1.8 1.8-1.8v0h3.6c0.994 0 1.8 0.806 1.8 1.8v0 3.6h-1.8v3.6c0 0.331-0.269 0.6-0.6 0.6h-2.4z"></path>
<path fill="none" stroke="#f3b641" stroke-width="0.7" stroke-miterlimit="4" stroke-linecap="butt" stroke-linejoin="miter" style="stroke: var(--color1, #f3b641)" d="M7.85 9.050c0-0.663 0.537-1.2 1.2-1.2v0c0 0 0 0 0 0 0.663 0 1.2 0.537 1.2 1.2v0c0 0 0 0 0 0 0 0.663-0.537 1.2-1.2 1.2-0 0-0 0-0 0h0c-0.663 0-1.2-0.537-1.2-1.2 0-0 0-0 0-0v0z"></path>
<path fill="none" stroke="#f3b641" stroke-width="0.7" stroke-miterlimit="4" stroke-linecap="round" stroke-linejoin="round" style="stroke: var(--color1, #f3b641)" d="M18.65 18.050v-4.8c0-0.678-0.235-1.297-0.616-1.8h1.816c0 0 0 0 0 0 0.663 0 1.2 0.537 1.2 1.2 0 0 0 0 0 0v-0 3.6h-1.2v3c0 0.331-0.269 0.6-0.6 0.6h-1.2c-0.331-0-0.6-0.269-0.6-0.6v-1.2h1.2z"></path>
<path fill="none" stroke="#f3b641" stroke-width="0.7" stroke-miterlimit="4" stroke-linecap="butt" stroke-linejoin="miter" style="stroke: var(--color1, #f3b641)" d="M18.65 10.25c0.663 0 1.2-0.537 1.2-1.2 0-0 0-0 0-0v0c0-0.663-0.537-1.2-1.2-1.2v0c-0 0-0 0-0 0-0.663 0-1.2 0.537-1.2 1.2v0c0 0 0 0 0 0 0 0.663 0.537 1.2 1.2 1.2 0 0 0 0 0 0h-0"></path>
</symbol>
<symbol id="icon-hub" viewBox="0 0 28 28">
<title>icon-hub</title>
<path fill="#f3b641" opacity="0.2" style="fill: var(--color1, #f3b641)" d="M28 14c0 7.732-6.268 14-14 14s-14-6.268-14-14c0-7.732 6.268-14 14-14s14 6.268 14 14z"></path>
<path fill="none" stroke="#f3b641" stroke-width="0.7" stroke-miterlimit="4" stroke-linecap="butt" stroke-linejoin="miter" style="stroke: var(--color1, #f3b641)" d="M20.3 7.525c0 0.677-0.548 1.225-1.225 1.225s-1.225-0.548-1.225-1.225c0-0.677 0.548-1.225 1.225-1.225s1.225 0.548 1.225 1.225z"></path>
<path fill="none" stroke="#f3b641" stroke-width="0.7" stroke-miterlimit="4" stroke-linecap="butt" stroke-linejoin="miter" style="stroke: var(--color1, #f3b641)" d="M15.836 21.544c0 0.773-0.627 1.4-1.4 1.4s-1.4-0.627-1.4-1.4c0-0.773 0.627-1.4 1.4-1.4s1.4 0.627 1.4 1.4z"></path>
<path fill="#f3b641" stroke="#f3b641" stroke-width="0.7" stroke-miterlimit="4" stroke-linecap="butt" stroke-linejoin="miter" style="stroke: var(--color1, #f3b641)" style="fill: var(--color1, #f3b641)" d="M21.7 18.55c0 0.58-0.47 1.050-1.050 1.050s-1.050-0.47-1.050-1.050c0-0.58 0.47-1.050 1.050-1.050s1.050 0.47 1.050 1.050z"></path>
<path fill="none" stroke="#f3b641" stroke-width="0.7" stroke-miterlimit="4" stroke-linecap="butt" stroke-linejoin="miter" style="stroke: var(--color1, #f3b641)" d="M8.824 16.761c0 0.483-0.392 0.875-0.875 0.875s-0.875-0.392-0.875-0.875c0-0.483 0.392-0.875 0.875-0.875s0.875 0.392 0.875 0.875z"></path>
<path fill="#f3b641" stroke="#f3b641" stroke-width="0.7" stroke-miterlimit="4" stroke-linecap="butt" stroke-linejoin="miter" style="stroke: var(--color1, #f3b641)" style="fill: var(--color1, #f3b641)" d="M10.452 7.141c0 0.58-0.47 1.050-1.050 1.050s-1.050-0.47-1.050-1.050c0-0.58 0.47-1.050 1.050-1.050s1.050 0.47 1.050 1.050z"></path>
<path fill="#f3b641" stroke="#f3b641" stroke-width="0.7" stroke-miterlimit="4" stroke-linecap="butt" stroke-linejoin="miter" style="stroke: var(--color1, #f3b641)" style="fill: var(--color1, #f3b641)" d="M15.107 13.879c0 1.16-0.94 2.1-2.1 2.1s-2.1-0.94-2.1-2.1c0-1.16 0.94-2.1 2.1-2.1s2.1 0.94 2.1 2.1z"></path>
<path fill="none" stroke="#f3b641" stroke-width="0.7" stroke-miterlimit="4" stroke-linecap="round" stroke-linejoin="miter" style="stroke: var(--color1, #f3b641)" d="M19.746 17.901l-5.19-3.12"></path>
</symbol>
<symbol id="icon-laptop" viewBox="0 0 28 28">
<title>icon-laptop</title>
<path fill="#f3b641" opacity="0.2" style="fill: var(--color1, #f3b641)" d="M28 14c0 7.732-6.268 14-14 14s-14-6.268-14-14c0-7.732 6.268-14 14-14s14 6.268 14 14z"></path>
<path fill="none" stroke="#f3b641" stroke-width="0.7" stroke-miterlimit="4" stroke-linecap="butt" stroke-linejoin="miter" style="stroke: var(--color1, #f3b641)" d="M5.6 17.5v1.050c0 0.387 0.313 0.7 0.7 0.7v0h14.35c0.387 0 0.7-0.313 0.7-0.7v0-1.050h-15.75zM6.3 17.5h14.35v-9.1c0-0.387-0.313-0.7-0.7-0.7v0h-12.95c-0.387 0-0.7 0.313-0.7 0.7v0 9.1z"></path>
<path fill="#f3b641" style="fill: var(--color1, #f3b641)" d="M8.050 9.1h10.85c0.193 0 0.35 0.157 0.35 0.35v0 6.3c0 0.193-0.157 0.35-0.35 0.35v0h-10.85c-0.193 0-0.35-0.157-0.35-0.35v0-6.3c0-0.193 0.157-0.35 0.35-0.35v0zM9.1 10.85v0.7h5.95v-0.7h-5.95zM9.1 12.25v0.7h3.5v-0.7h-3.5zM9.1 13.65v0.7h5.95v-0.7h-5.95z"></path>
<path fill="none" stroke="#fdf0d9" stroke-width="2.1" stroke-miterlimit="4" stroke-linecap="butt" stroke-linejoin="miter" style="stroke: var(--color2, #fdf0d9)" d="M22.987 12.923c0 1.546-1.254 2.8-2.8 2.8s-2.8-1.254-2.8-2.8c0-1.546 1.254-2.8 2.8-2.8s2.8 1.254 2.8 2.8z"></path>
<path fill="none" stroke="#f3b641" stroke-width="0.7" stroke-miterlimit="4" stroke-linecap="butt" stroke-linejoin="miter" style="stroke: var(--color1, #f3b641)" d="M22.987 12.923c0 1.546-1.254 2.8-2.8 2.8s-2.8-1.254-2.8-2.8c0-1.546 1.254-2.8 2.8-2.8s2.8 1.254 2.8 2.8z"></path>
<path fill="#fdf0d9" style="fill: var(--color2, #fdf0d9)" d="M22.637 12.923c0 1.353-1.097 2.45-2.45 2.45s-2.45-1.097-2.45-2.45c0-1.353 1.097-2.45 2.45-2.45s2.45 1.097 2.45 2.45z"></path>
<path fill="none" stroke="#fdf0d9" stroke-width="2.1" stroke-miterlimit="4" stroke-linecap="butt" stroke-linejoin="miter" style="stroke: var(--color2, #fdf0d9)" d="M20.187 17.123c0.387 0 0.7 0.313 0.7 0.7v2.45c0 0.387-0.313 0.7-0.7 0.7s-0.7-0.313-0.7-0.7v-2.45c0-0.387 0.313-0.7 0.7-0.7z"></path>
<path fill="none" stroke="#f3b641" stroke-width="0.7" stroke-miterlimit="4" stroke-linecap="butt" stroke-linejoin="miter" style="stroke: var(--color1, #f3b641)" d="M20.187 17.123c0.387 0 0.7 0.313 0.7 0.7v2.45c0 0.387-0.313 0.7-0.7 0.7s-0.7-0.313-0.7-0.7v-2.45c0-0.387 0.313-0.7 0.7-0.7z"></path>
<path fill="none" stroke="#f3b641" stroke-width="0.7" stroke-miterlimit="4" stroke-linecap="butt" stroke-linejoin="miter" style="stroke: var(--color1, #f3b641)" d="M20.187 16.423h0.35v0.35h-0.35z"></path>
</symbol>
<symbol id="icon-check" viewBox="0 0 28 28">
<title>check</title>
<path d="M26.109 8.844c0 0.391-0.156 0.781-0.438 1.062l-13.438 13.438c-0.281 0.281-0.672 0.438-1.062 0.438s-0.781-0.156-1.062-0.438l-7.781-7.781c-0.281-0.281-0.438-0.672-0.438-1.062s0.156-0.781 0.438-1.062l2.125-2.125c0.281-0.281 0.672-0.438 1.062-0.438s0.781 0.156 1.062 0.438l4.594 4.609 10.25-10.266c0.281-0.281 0.672-0.438 1.062-0.438s0.781 0.156 1.062 0.438l2.125 2.125c0.281 0.281 0.438 0.672 0.438 1.062z"></path>
</symbol>
<symbol id="icon-close" viewBox="0 0 28 28">
<title>close</title>
<path stroke-width="1.1667" stroke-miterlimit="10" stroke-linecap="square" stroke-linejoin="miter" d="M22.167 5.833l-16.333 16.333"></path>
<path stroke-width="1.1667" stroke-miterlimit="10" stroke-linecap="square" stroke-linejoin="miter" d="M22.167 22.167l-16.333-16.333"></path>
</symbol>
<symbol id="icon-share" viewBox="0 0 32 32">
<title>share</title>
<path d="M27 22c-1.411 0-2.685 0.586-3.594 1.526l-13.469-6.734c0.041-0.258 0.063-0.522 0.063-0.791s-0.022-0.534-0.063-0.791l13.469-6.734c0.909 0.94 2.183 1.526 3.594 1.526 2.761 0 5-2.239 5-5s-2.239-5-5-5-5 2.239-5 5c0 0.269 0.022 0.534 0.063 0.791l-13.469 6.734c-0.909-0.94-2.183-1.526-3.594-1.526-2.761 0-5 2.239-5 5s2.239 5 5 5c1.411 0 2.685-0.586 3.594-1.526l13.469 6.734c-0.041 0.258-0.063 0.522-0.063 0.791 0 2.761 2.239 5 5 5s5-2.239 5-5c0-2.761-2.239-5-5-5z"></path>
</symbol>
<symbol id="icon-facebook" viewBox="0 0 32 32">
<title>facebook</title>
<path d="M29 0h-26c-1.65 0-3 1.35-3 3v26c0 1.65 1.35 3 3 3h13v-14h-4v-4h4v-2c0-3.306 2.694-6 6-6h4v4h-4c-1.1 0-2 0.9-2 2v2h6l-1 4h-5v14h9c1.65 0 3-1.35 3-3v-26c0-1.65-1.35-3-3-3z"></path>
</symbol>
<symbol id="icon-twitter" viewBox="0 0 32 32">
<title>twitter</title>
<path d="M32 7.075c-1.175 0.525-2.444 0.875-3.769 1.031 1.356-0.813 2.394-2.1 2.887-3.631-1.269 0.75-2.675 1.3-4.169 1.594-1.2-1.275-2.906-2.069-4.794-2.069-3.625 0-6.563 2.938-6.563 6.563 0 0.512 0.056 1.012 0.169 1.494-5.456-0.275-10.294-2.888-13.531-6.862-0.563 0.969-0.887 2.1-0.887 3.3 0 2.275 1.156 4.287 2.919 5.463-1.075-0.031-2.087-0.331-2.975-0.819 0 0.025 0 0.056 0 0.081 0 3.181 2.263 5.838 5.269 6.437-0.55 0.15-1.131 0.231-1.731 0.231-0.425 0-0.831-0.044-1.237-0.119 0.838 2.606 3.263 4.506 6.131 4.563-2.25 1.762-5.075 2.813-8.156 2.813-0.531 0-1.050-0.031-1.569-0.094 2.913 1.869 6.362 2.95 10.069 2.95 12.075 0 18.681-10.006 18.681-18.681 0-0.287-0.006-0.569-0.019-0.85 1.281-0.919 2.394-2.075 3.275-3.394z"></path>
</symbol>
<symbol id="icon-vizz" viewBox="0 0 4161 1024">
    <title>logo-vizzuality</title>
    <path d="M268.816 647.566l-122.013-404.584h-144.495l189.447 584.397h147.704l192.662-584.397h-144.495l-118.81 404.584z" class="path1"></path>
    <path d="M538.539 242.982h138.070v584.397h-138.070v-584.397z" class="path2"></path>
    <path d="M538.539 11.792h138.070v141.279h-138.070v-141.279z" class="path3"></path>
    <path d="M740.835 368.21h285.774l-317.884 353.208v105.961h500.912v-125.228h-305.048l305.048-349.999v-109.17h-468.803v125.228z" class="path4"></path>
    <path d="M1241.747 368.21h282.565l-314.675 353.208v105.961h504.121v-125.228h-311.466l311.466-349.999v-109.17h-472.012v125.228z" class="path5"></path>
    <path d="M2140.819 506.28c0 44.952 0 99.543-22.476 141.286-9.633 22.476-44.958 64.218-112.386 64.218-99.543 0-112.386-73.852-112.386-131.652v-337.15h-141.279v369.26c0 51.376 3.209 105.961 35.318 154.128 25.685 35.318 70.643 77.061 170.18 77.061 102.752 0 160.553-44.952 186.238-73.852v61.010h141.286v-584.397h-141.286v260.089h-3.209z" class="path6"></path>
    <path d="M2834.393 393.894c0-102.752-73.852-166.971-244.038-166.971-244.032 0-253.665 147.704-253.665 186.238l141.279 6.424c0-32.109 9.633-86.701 115.595-86.701 86.701 0 99.543 41.743 99.543 86.701-38.534 12.842-93.119 28.894-179.813 41.743-109.177 22.476-208.713 70.643-208.713 199.080 0 99.537 77.061 179.813 211.922 179.813 70.643 0 134.861-28.9 173.395-61.010l3.209 44.958h166.971c-25.685-38.534-25.685-48.167-25.685-96.334v-333.941zM2689.898 615.45c0 73.858-77.067 105.968-144.495 105.968-70.643 0-96.328-32.109-96.328-70.643 0-61.010 64.218-70.643 128.437-80.276 51.376-6.424 86.694-22.476 109.17-32.109v77.061h3.215z" class="path7"></path>
    <path d="M2898.611 5.368h141.279v825.22h-141.279v-825.22z" class="path8"></path>
    <path d="M3113.743 11.792h138.070v141.279h-138.070v-141.279z" class="path9"></path>
    <path d="M3935.754 242.982l-109.177 433.478-131.646-433.478h-221.556v-208.713h-141.286v208.713h-221.556v584.397h138.070v-484.861h83.485v346.79c0 96.328 38.534 141.279 166.971 141.279 48.167 0 80.276-6.424 99.537-9.633v-118.804c-16.051 3.209-38.527 6.418-61.010 6.418-6.418 0-35.318 0-51.376-16.051-12.842-12.842-12.842-38.534-12.842-61.010v-288.99h102.752l176.604 494.494c-3.209 12.842-16.058 61.010-96.328 61.010-9.633 0-25.691 0-38.534-3.215v118.81c22.476 3.209 38.534 6.418 80.276 6.418 44.952 0 80.27-6.418 118.804-35.318 48.167-38.534 77.067-144.495 99.543-215.138l160.546-526.597h-141.279z" class="path10"></path>
    <path d="M4003.181 670.042h154.128v160.546h-154.128v-160.546z" class="path11"></path>
    </symbol>
</defs>
</svg>
